<svg width="24" height="24" viewBox="0 0 24 24" fill="none" xmlns="http://www.w3.org/2000/svg">
<path d="M7.23725 0.580429C6.01364 0.638159 5.17804 0.833429 4.44755 1.12047C3.69153 1.4151 3.05074 1.81047 2.41318 2.45034C1.77561 3.0902 1.383 3.73144 1.09043 4.4886C0.807302 5.22069 0.61548 6.05698 0.561429 7.28127C0.507379 8.50557 0.495419 8.8991 0.501399 12.022C0.507379 15.145 0.521179 15.5365 0.580519 16.7633C0.63894 17.9867 0.833522 18.822 1.12056 19.5527C1.41566 20.3087 1.81057 20.9493 2.45067 21.5871C3.09076 22.2249 3.73155 22.6166 4.49056 22.9096C5.22197 23.1923 6.05849 23.385 7.28256 23.4386C8.50663 23.4922 8.90062 23.5046 12.0227 23.4986C15.1447 23.4926 15.5378 23.4788 16.7644 23.4207C17.991 23.3625 18.822 23.1665 19.553 22.8808C20.309 22.5851 20.95 22.1908 21.5873 21.5505C22.2247 20.9102 22.617 20.2685 22.9094 19.5109C23.1927 18.7795 23.3852 17.943 23.4384 16.7198C23.492 15.4923 23.5046 15.1004 23.4986 11.9779C23.4927 8.8554 23.4786 8.46394 23.4204 7.23757C23.3623 6.01121 23.1674 5.17837 22.8806 4.4472C22.5851 3.69119 22.1906 3.0511 21.5508 2.41284C20.9109 1.77459 20.2687 1.38244 19.5113 1.0908C18.7795 0.807669 17.9434 0.614699 16.7193 0.561798C15.4952 0.508898 15.1013 0.495328 11.9781 0.501308C8.85485 0.507288 8.46385 0.520628 7.23725 0.580429ZM7.37157 21.3697C6.25031 21.321 5.64149 21.1347 5.23577 20.9787C4.69848 20.7717 4.31576 20.5215 3.91141 20.1211C3.50707 19.7206 3.25867 19.3365 3.0489 18.8004C2.89135 18.3947 2.7016 17.7866 2.64916 16.6653C2.59212 15.4534 2.58016 15.0896 2.57349 12.0193C2.56682 8.94901 2.57855 8.58561 2.63168 7.37327C2.67952 6.25294 2.86697 5.64344 3.02268 5.23794C3.22969 4.69997 3.47901 4.31794 3.88036 3.91383C4.28172 3.50972 4.66467 3.26086 5.20127 3.0511C5.60653 2.89286 6.21466 2.70472 7.33546 2.65136C8.54826 2.59386 8.91166 2.58236 11.9815 2.57569C15.0513 2.56902 15.4157 2.58052 16.6289 2.63388C17.7493 2.68264 18.359 2.86825 18.764 3.02488C19.3016 3.23188 19.6841 3.48051 20.0882 3.88255C20.4923 4.28459 20.7414 4.66616 20.9511 5.2039C21.1096 5.60802 21.2977 6.21591 21.3506 7.33739C21.4084 8.55019 21.4215 8.91382 21.427 11.9834C21.4325 15.053 21.4217 15.4176 21.3686 16.6294C21.3196 17.7507 21.1338 18.3597 20.9776 18.7659C20.7706 19.303 20.521 19.6859 20.1194 20.0898C19.7179 20.4937 19.3354 20.7425 18.7985 20.9523C18.3937 21.1103 17.7849 21.2989 16.665 21.3523C15.4522 21.4093 15.0888 21.4213 12.0178 21.4279C8.94685 21.4346 8.5846 21.4222 7.3718 21.3697M16.7467 5.85366C16.7471 6.12662 16.8285 6.39331 16.9806 6.62C17.1326 6.8467 17.3485 7.02322 17.6008 7.12724C17.8532 7.23125 18.1307 7.25809 18.3984 7.20436C18.666 7.15063 18.9117 7.01874 19.1043 6.82537C19.297 6.63201 19.428 6.38586 19.4807 6.11804C19.5335 5.85023 19.5056 5.57279 19.4007 5.32081C19.2957 5.06883 19.1184 4.85363 18.8912 4.70242C18.6639 4.55122 18.3969 4.47081 18.1239 4.47135C17.758 4.47208 17.4074 4.61812 17.1491 4.87733C16.8908 5.13655 16.7461 5.48774 16.7467 5.85366ZM6.09529 12.0115C6.10173 15.2729 8.75043 17.9108 12.0112 17.9045C15.2719 17.8983 17.9117 15.2499 17.9054 11.9885C17.8992 8.72706 15.2498 6.08849 11.9886 6.09493C8.72743 6.10137 6.08908 8.75052 6.09529 12.0115ZM8.16669 12.0073C8.16519 11.2492 8.38855 10.5076 8.80852 9.87632C9.2285 9.24509 9.82623 8.75256 10.5261 8.46103C11.226 8.16951 11.9966 8.09207 12.7406 8.23851C13.4845 8.38495 14.1682 8.74869 14.7054 9.28374C15.2426 9.8188 15.609 10.5011 15.7584 11.2444C15.9078 11.9878 15.8334 12.7587 15.5447 13.4597C15.2559 14.1608 14.7658 14.7604 14.1362 15.1829C13.5066 15.6054 12.7659 15.8317 12.0077 15.8332C11.5043 15.8342 11.0056 15.7361 10.5401 15.5444C10.0746 15.3527 9.65139 15.0712 9.29471 14.7159C8.93802 14.3606 8.65482 13.9385 8.46127 13.4738C8.26772 13.0091 8.16762 12.5108 8.16669 12.0073Z" fill="white"/>
</svg>
