<svg width="20" height="20" viewBox="0 0 20 20" fill="none" xmlns="http://www.w3.org/2000/svg">
<g clip-path="url(#clip0_32_288)">
<path fill-rule="evenodd" clip-rule="evenodd" d="M10 0.000732422C4.47667 0.000732422 0 3.70799 0 8.28102C0 11.1255 1.73165 13.6321 4.36832 15.1231L3.25721 19.4668C3.23693 19.5525 3.24158 19.6428 3.2705 19.7257C3.29943 19.8085 3.35128 19.8801 3.41919 19.9308C3.4871 19.9815 3.56786 20.009 3.65075 20.0096C3.73364 20.0103 3.81474 19.984 3.88333 19.9344L8.74668 16.4944C9.15668 16.5364 9.57389 16.5613 9.99834 16.5613C15.5211 16.5613 19.9983 12.8535 19.9983 8.28102C19.9983 3.70858 15.5211 0.000732422 9.99834 0.000732422" fill="black" fill-opacity="0.9"/>
</g>
<defs>
<clipPath id="clip0_32_288">
<rect width="20" height="20" fill="white"/>
</clipPath>
</defs>
</svg>
