<svg width="287" height="36" viewBox="0 0 287 36" fill="none" xmlns="http://www.w3.org/2000/svg">
<path d="M184.92 14.0463H182.22V34.6863H184.92V14.0463Z" fill="#717171"/>
<path d="M178.33 21.0063H175.24V22.9963H178.33V34.6863H181.03V14.0463H178.33V21.0063Z" fill="#717171"/>
<path d="M173.17 19.1263V18.1663H176.57V16.1763H173.17V13.7863H170.32V16.1763H166.92V18.1663H170.32V19.1263C170.32 23.2463 168.84 25.6163 166.35 27.8363L167.97 29.1763C169.4 28.1463 171.17 26.3363 171.74 24.4163C172.3 26.2863 174.08 28.1463 175.51 29.1763L177.13 27.8363C174.64 25.6163 173.16 23.2463 173.16 19.1263H173.17Z" fill="#717171"/>
<path d="M231.42 19.5463C231.42 21.9563 233.57 23.4863 236.78 23.4863C239.99 23.4863 242.15 21.9563 242.15 19.5463C242.15 18.6863 241.87 17.9563 241.39 17.3463H244.35V15.3563H238.21V13.5263H235.33V15.3563H229.19V17.3463H232.19C231.7 17.9463 231.43 18.6863 231.43 19.5463H231.42ZM236.78 17.6063C238.19 17.6063 239.19 18.3563 239.19 19.5463C239.19 20.7363 238.19 21.4763 236.78 21.4763C235.37 21.4763 234.37 20.7263 234.37 19.5463C234.37 18.3663 235.36 17.6063 236.78 17.6063Z" fill="#717171"/>
<path d="M246.39 24.2163H227.14V26.2063H246.39V24.2163Z" fill="#717171"/>
<path d="M236.78 27.0063C233.17 27.0063 230.84 28.6263 230.84 31.1563C230.84 33.6863 233.17 35.3063 236.78 35.3063C240.39 35.3063 242.72 33.6863 242.72 31.1563C242.72 28.6263 240.38 27.0063 236.78 27.0063ZM236.78 33.3163C235 33.3163 233.85 32.4763 233.85 31.1563C233.85 29.8363 235 28.9963 236.78 28.9963C238.56 28.9963 239.71 29.8463 239.71 31.1563C239.71 32.4663 238.55 33.3163 236.78 33.3163Z" fill="#717171"/>
<path d="M196.81 22.3463C200.29 22.3463 202.54 20.5563 202.54 17.7363C202.54 14.9163 200.29 13.1263 196.81 13.1263C193.33 13.1263 191.08 14.9163 191.08 17.7363C191.08 20.5563 193.33 22.3463 196.81 22.3463ZM196.81 15.1863C198.49 15.1863 199.58 16.1763 199.58 17.7363C199.58 19.2963 198.49 20.2863 196.81 20.2863C195.13 20.2863 194.03 19.2863 194.03 17.7363C194.03 16.1863 195.13 15.1863 196.81 15.1863Z" fill="#717171"/>
<path d="M187.19 25.3763H192.08V27.5563H189.6V29.5563H200.46C200.62 29.5563 200.75 29.6763 200.75 29.8463V34.8863H203.62V28.9463C203.62 28.1863 203 27.5663 202.24 27.5663H201.57V25.3863H206.45V23.3963H187.2V25.3863L187.19 25.3763ZM194.95 25.3763H198.67V27.5563H194.95V25.3763Z" fill="#717171"/>
<path d="M224.8 14.0463H221.9V28.2163H224.8V14.0463Z" fill="#717171"/>
<path d="M213.94 21.9063C215.62 24.9463 219.06 26.0963 219.06 26.0963L220.15 24.2663C215.7 22.5763 215.43 17.7063 215.43 16.8763H219.28V14.8863H208.62V16.8763H212.47C212.47 17.7063 212.2 22.5763 207.75 24.2663L208.84 26.0963C208.84 26.0963 212.27 24.9463 213.95 21.9063H213.94Z" fill="#717171"/>
<path d="M215.05 27.3363H212.15V32.9763C212.15 33.7363 212.77 34.3663 213.54 34.3663H225.16V32.3763H215.34C215.18 32.3763 215.05 32.2463 215.05 32.0863V27.3363Z" fill="#717171"/>
<path d="M256.64 26.1863C253.04 26.1863 250.7 27.9663 250.7 30.7463C250.7 33.5263 253.04 35.3063 256.64 35.3063C260.24 35.3063 262.57 33.5263 262.57 30.7463C262.57 27.9663 260.24 26.1863 256.64 26.1863ZM256.64 33.3163C254.81 33.3163 253.61 32.3163 253.61 30.7363C253.61 29.1563 254.81 28.1563 256.64 28.1563C258.47 28.1563 259.67 29.1563 259.67 30.7363C259.67 32.3163 258.48 33.3163 256.64 33.3163Z" fill="#717171"/>
<path d="M263.49 17.4163V16.0863C263.49 15.3163 262.87 14.7063 262.11 14.7063H249.89V16.6963H260.31C260.47 16.6963 260.6 16.8263 260.6 16.9863V17.8563C260.6 20.8763 259.72 23.1263 259.72 23.1263H256.33V19.2963H253.45V23.1263H247.04V25.1163H266.29V23.1263H262.53C262.53 23.1263 263.5 20.8163 263.5 17.4263L263.49 17.4163Z" fill="#717171"/>
<path d="M283.37 18.9763V14.0563H280.47V21.3863C278.66 22.7063 275.29 23.1163 271.93 23.1163H271.2C271.04 23.1163 270.91 22.9863 270.91 22.8263V17.1363C270.91 16.9763 271.04 16.8463 271.2 16.8463H277.19V14.8563H269.39C268.63 14.8563 268.01 15.4763 268.01 16.2363V23.7263C268.01 24.4963 268.63 25.1063 269.39 25.1063H270.93C272.95 25.1063 278.03 25.1963 280.47 23.5863V28.2163H283.37V20.9663H286.66V18.9763H283.37Z" fill="#717171"/>
<path d="M273.78 27.1663H270.92V32.9763C270.92 33.7363 271.54 34.3663 272.3 34.3663H283.88V32.3763H274.07C273.91 32.3763 273.78 32.2463 273.78 32.0863V27.1663Z" fill="#717171"/>
<path d="M163.69 14.0463H160.8V28.2063H163.69V14.0463Z" fill="#717171"/>
<path d="M142.15 16.3763V15.4763C142.15 14.7063 141.53 14.0963 140.77 14.0963H128.5V16.0863H138.98C139.14 16.0863 139.27 16.2163 139.27 16.3763V17.0763C139.27 19.6563 138.51 21.6563 138.51 21.6563H125.73V23.6463H133.9V26.8863H128.61V28.8763H138.95C139.11 28.8763 139.24 29.0063 139.24 29.1663V34.7963H142.13V28.2663C142.13 27.5063 141.51 26.8863 140.75 26.8863H136.8V23.6463H144.99V21.6563H141.33C141.33 21.6563 142.17 19.3863 142.17 16.3763H142.15Z" fill="#717171"/>
<path d="M153.63 32.0663V27.1463H150.74V32.9563C150.74 33.7163 151.36 34.3363 152.12 34.3363H164.04V32.3463H153.91C153.75 32.3463 153.62 32.2163 153.62 32.0563L153.63 32.0663Z" fill="#717171"/>
<path d="M157.44 23.2763V15.7163C157.44 14.9563 156.82 14.3363 156.06 14.3363H148.44C147.68 14.3363 147.06 14.9563 147.06 15.7163V23.2763C147.06 24.0363 147.68 24.6563 148.44 24.6563H156.06C156.82 24.6563 157.44 24.0363 157.44 23.2763ZM154.56 22.3863C154.56 22.5463 154.43 22.6763 154.28 22.6763H150.24C150.08 22.6763 149.95 22.5463 149.95 22.3863V16.6163C149.95 16.4563 150.08 16.3363 150.24 16.3263H154.28C154.43 16.3263 154.56 16.4563 154.56 16.6163V22.3863Z" fill="#717171"/>
<path d="M74.6 14.0763H64.42C59.66 14.0763 57.5 17.1463 56.91 19.3563L52.87 34.4063H54.44C56.62 34.4063 58.2 33.7463 58.57 32.5163C59.41 29.3763 61.08 23.1463 61.92 20.0063C62.25 18.7863 63.48 18.1363 64.33 18.1363C67.07 18.1363 71.79 18.1363 71.79 18.1363C73.08 18.1363 74.67 18.3463 73.96 20.7363C73.56 22.1563 72.29 22.8663 70.14 22.8663H66.8C64.6 22.8663 62.99 23.5463 62.65 24.8063L62.08 26.9263H69.33C73.8 26.9263 77.74 25.9863 79.19 20.5863C80.42 16.0163 78.25 14.0863 74.58 14.0863L74.6 14.0763Z" fill="#717171"/>
<path d="M94.16 13.4963H93.12C87.25 13.4963 81.45 17.3863 79.93 23.0563L79.3 25.4163C77.78 31.0863 81.5 34.9763 87.37 34.9763H88.4C95.27 34.9763 100.08 31.0863 101.59 25.4163L102.22 23.0563C103.74 17.3863 100.02 13.4963 94.15 13.4963H94.16ZM96.73 23.8863L96.51 24.7163C95.42 28.7963 92.15 31.0063 89.47 31.0063H88.46C85.79 31.0063 83.7 28.7963 84.8 24.7163L85.02 23.8863C86.11 19.8063 89.38 17.5963 92.06 17.5963H93.07C95.75 17.5963 97.83 19.8063 96.74 23.8863H96.73Z" fill="#717171"/>
<path d="M32.27 11.4063H27.27C25.23 11.4063 23.57 12.0963 22.63 12.8963L10.54 21.6063C11.51 18.0063 12.46 14.4563 13.28 11.4063H9.79C7.62 11.4063 6.04 12.0663 5.67 13.2863L0 34.3963H3.48C5.68 34.3963 7.29 33.7163 7.63 32.4563C8.33 29.8563 9.1 26.9863 9.87 24.1063L16.86 32.8463C17.54 33.6963 18.3 34.3963 20.77 34.3963H26.11L17 23.0863L32.27 11.3963V11.4063Z" fill="#717171"/>
<path d="M47.7 22.0163H40.64C38.73 22.0163 37.83 21.6363 38.32 19.9963C38.72 18.5863 39.93 18.1263 42.07 18.1263H50.99C53.19 18.1263 54.79 17.4463 55.13 16.1863L55.7 14.0663H42.88C38.41 14.0663 34.44 15.0963 33.09 20.1563C32.15 23.6663 33.86 26.0963 37.85 26.0763H44.9C46.87 26.0763 47.69 26.4963 47.19 28.2063C46.79 29.6263 45.52 30.3263 43.37 30.3263H34.35C32.15 30.3263 30.54 31.0063 30.2 32.2663L29.63 34.3863H42.56C47.39 34.3863 51.03 33.2363 52.42 28.0463C53.52 23.9463 51.19 22.0163 47.7 22.0163Z" fill="#717171"/>
<path d="M112.51 7.47632C112.11 7.24632 111.93 7.24632 111.6 7.59632C110.3 9.00632 107.98 11.6463 106.8 12.9763C108.38 15.2563 109.57 18.9263 108.88 23.6163C108.79 23.9363 108.98 24.1563 109.27 23.8663C112.23 20.8763 115.54 17.5763 118.51 15.3263C117.33 11.7263 114.72 8.73632 112.51 7.46632V7.47632Z" fill="#717171"/>
<path d="M94.13 6.70632C93.97 6.79632 93.97 7.02632 94.13 7.02632C98.34 6.93632 101.14 7.88632 103.48 9.58632C106.14 7.41632 110.64 4.00632 112.82 2.88632C113.69 2.68632 115.23 2.49632 116.27 2.46632C115.36 3.44632 114.08 4.86632 113.35 5.66632C113.16 5.87632 113.35 6.05632 113.57 5.96632C119.54 3.62632 127.48 1.81632 133.94 1.34632C119.18 -1.73368 104.9 0.646315 94.13 6.69632V6.70632Z" fill="#717171"/>
<path d="M136.09 1.85632C130.34 2.54632 122.64 5.07632 118.72 7.10632C118.17 7.38632 118.28 7.59632 118.69 7.77632C119.97 8.34632 122.24 9.75631 123.52 11.7363C131.96 6.70631 139.14 4.20632 141.58 3.38632C139.76 2.79632 137.85 2.26632 136.08 1.85632H136.09Z" fill="#717171"/>
</svg>
