<svg width="81" height="30" viewBox="0 0 81 30" fill="none" xmlns="http://www.w3.org/2000/svg">
<path d="M17.1599 28.9956L16.4927 27.9681V28.9956H15.9856V26.9407H16.4393L17.0932 27.9815V26.9407H17.6002V28.9956H17.1599Z" fill="#717171"/>
<path d="M19.3214 28.9956L19.228 28.6887H18.5875L18.4942 28.9956H17.9604L18.7076 26.9407H19.0946L19.8418 28.9956H19.3214ZM18.9211 27.728L18.7344 28.275H19.0946L18.9211 27.728Z" fill="#717171"/>
<path d="M20.9094 27.3944V28.9956H20.4024V27.3944H19.8953V26.9407H21.4165V27.3944H20.9094Z" fill="#717171"/>
<path d="M22.3239 26.9407H21.8168V29.0089H22.3239V26.9407Z" fill="#717171"/>
<path d="M24.1519 28.7821C24.0051 28.9289 23.8316 29.0089 23.5781 29.0089C23.3246 29.0089 23.1511 28.9289 23.0043 28.7821C22.7908 28.5686 22.7908 28.275 22.7908 27.9681C22.7908 27.6612 22.7775 27.3677 23.0043 27.1542C23.1511 27.0074 23.3246 26.9274 23.5781 26.9274C23.8316 26.9274 24.0051 27.0074 24.1519 27.1542C24.3654 27.3677 24.3654 27.6612 24.3654 27.9681C24.3654 28.275 24.3787 28.5686 24.1519 28.7821ZM23.7783 27.4611C23.7382 27.4077 23.6715 27.3677 23.5781 27.3677C23.4847 27.3677 23.418 27.4077 23.378 27.4611C23.3379 27.5278 23.2979 27.5945 23.2979 27.9681C23.2979 28.3418 23.3246 28.4085 23.378 28.4752C23.418 28.5286 23.4847 28.5686 23.5781 28.5686C23.6715 28.5686 23.7382 28.5286 23.7783 28.4752C23.8183 28.4085 23.8583 28.3418 23.8583 27.9681C23.8583 27.5945 23.8316 27.5278 23.7783 27.4611Z" fill="#717171"/>
<path d="M26.0067 28.9956L25.3395 27.9681V28.9956H24.8324V26.9407H25.2728L25.94 27.9815V26.9407H26.447V28.9956H26.0067Z" fill="#717171"/>
<path d="M28.1682 28.9956L28.0747 28.6887H27.4343L27.3275 28.9956H26.7938L27.541 26.9407H27.928L28.7019 28.9956H28.1682ZM27.7678 27.728L27.581 28.275H27.9413L27.7678 27.728Z" fill="#717171"/>
<path d="M29.0623 28.9956V26.9407H29.5694V28.5553H30.4233V28.9956H29.0623Z" fill="#717171"/>
<path d="M32.7717 28.9956L32.6783 28.6887H32.0378L31.931 28.9956H31.3973L32.1445 26.9407H32.5315L33.2787 28.9956H32.7717ZM32.3714 27.728L32.1846 28.275H32.5448L32.3714 27.728Z" fill="#717171"/>
<path d="M34.3064 29.0223C34.0662 29.0223 33.8794 28.9422 33.7326 28.7954C33.5191 28.5819 33.5191 28.2884 33.5191 27.9815C33.5191 27.6746 33.5058 27.381 33.7326 27.1675C33.8794 27.0207 34.0662 26.9407 34.3064 26.9407C34.6933 26.9407 35.0136 27.1542 35.0936 27.6079H34.5733C34.5466 27.4878 34.4798 27.381 34.3064 27.381C34.213 27.381 34.1463 27.4211 34.1062 27.4611C34.0662 27.5278 34.0262 27.5945 34.0262 27.9681C34.0262 28.3418 34.0529 28.4218 34.1062 28.4752C34.1463 28.5286 34.213 28.5553 34.3064 28.5553C34.4798 28.5553 34.5332 28.4485 34.5733 28.3418H35.0936C35.0136 28.8088 34.7067 29.0223 34.3064 29.0223Z" fill="#717171"/>
<path d="M36.6414 28.9956L36.548 28.6887H35.9075L35.8008 28.9956H35.267L36.0142 26.9407H36.4012L37.1485 28.9956H36.6414ZM36.2411 27.728L36.0543 28.275H36.4146L36.2411 27.728Z" fill="#717171"/>
<path d="M38.8565 28.7954C38.7097 28.9422 38.5095 28.9956 38.296 28.9956H37.5354V26.9274H38.296C38.5095 26.9274 38.7097 26.9941 38.8565 27.1275C39.0966 27.3677 39.07 27.6346 39.07 27.9548C39.07 28.3017 39.0966 28.5553 38.8565 28.7954ZM38.5095 27.5011C38.4695 27.4344 38.3894 27.381 38.2693 27.381H38.0425V28.5419H38.2693C38.4028 28.5419 38.4695 28.5019 38.5095 28.4218C38.5496 28.3685 38.5629 28.3151 38.5629 27.9548C38.5629 27.6212 38.5496 27.5678 38.5095 27.5011Z" fill="#717171"/>
<path d="M39.537 28.9956V26.9407H40.9381V27.3944H40.0441V27.7413H40.8047V28.195H40.0441V28.5553H40.9381V28.9956H39.537Z" fill="#717171"/>
<path d="M42.8462 28.9956V28.0082L42.5527 28.5286H42.2324L41.9389 28.0082V28.9956H41.4318V26.9407H41.9255L42.3925 27.848L42.8596 26.9407H43.3533V28.9956H42.8462Z" fill="#717171"/>
<path d="M44.8477 28.1683V28.9956H44.3407V28.1683L43.7135 26.9407H44.2606L44.5942 27.6746L44.9145 26.9407H45.4615L44.8477 28.1683Z" fill="#717171"/>
<path d="M47.8633 28.7821C47.7166 28.9289 47.5431 29.0089 47.2896 29.0089C47.036 29.0089 46.8626 28.9289 46.7158 28.7821C46.5023 28.5686 46.5023 28.275 46.5023 27.9681C46.5023 27.6612 46.4889 27.3677 46.7158 27.1542C46.8626 27.0074 47.036 26.9274 47.2896 26.9274C47.5431 26.9274 47.7166 27.0074 47.8633 27.1542C48.0768 27.3677 48.0768 27.6612 48.0768 27.9681C48.0768 28.275 48.0768 28.5686 47.8633 28.7821ZM47.4897 27.4611C47.4497 27.4077 47.383 27.3677 47.2896 27.3677C47.1962 27.3677 47.1294 27.4077 47.0894 27.4611C47.0494 27.5278 47.0093 27.5945 47.0093 27.9681C47.0093 28.3418 47.036 28.4085 47.0894 28.4752C47.1294 28.5286 47.1962 28.5686 47.2896 28.5686C47.383 28.5686 47.4497 28.5286 47.4897 28.4752C47.5297 28.4085 47.5698 28.3418 47.5698 27.9681C47.5698 27.5945 47.5431 27.5278 47.4897 27.4611Z" fill="#717171"/>
<path d="M49.0508 27.3944V27.7546H49.8114V28.2083H49.0508V28.9956H48.5438V26.9407H49.9448V27.3944H49.0508Z" fill="#717171"/>
<path d="M51.7464 29.0223C51.4262 29.0223 51.1726 28.9689 50.9591 28.7554L51.2794 28.4352C51.3861 28.5419 51.573 28.582 51.7464 28.582C51.9466 28.582 52.04 28.5152 52.04 28.3951L51.9999 28.2751L51.8665 28.2217L51.613 28.1816C51.4262 28.155 51.2927 28.0882 51.1993 27.9948C51.1059 27.9014 51.0526 27.7547 51.0526 27.5812C51.0526 27.2076 51.3328 26.9274 51.7998 26.9274C52.0934 26.9274 52.3202 26.9941 52.4937 27.1675L52.1734 27.4878C52.04 27.3543 51.8665 27.3677 51.7864 27.3677C51.613 27.3677 51.5329 27.4744 51.5329 27.5545L51.573 27.6479L51.7197 27.7146L51.9733 27.7547C52.1601 27.7813 52.2935 27.8347 52.3736 27.9281C52.4803 28.0349 52.5337 28.195 52.5337 28.3818C52.547 28.7954 52.1868 29.0223 51.7464 29.0223Z" fill="#717171"/>
<path d="M53.8013 28.2617H53.4944V28.9956H52.9873V26.9274H53.8013C54.255 26.9274 54.5085 27.2476 54.5085 27.5945C54.5085 27.9415 54.2683 28.2617 53.8013 28.2617ZM53.788 27.3944H53.5077V27.808H53.788C53.9214 27.808 54.0148 27.7013 54.0148 27.5945C54.0015 27.5011 53.9214 27.3944 53.788 27.3944Z" fill="#717171"/>
<path d="M56.2432 28.7821C56.0964 28.9289 55.9229 29.0089 55.6694 29.0089C55.4159 29.0089 55.2424 28.9289 55.0956 28.7821C54.8821 28.5686 54.8821 28.275 54.8821 27.9681C54.8821 27.6612 54.8688 27.3677 55.0956 27.1542C55.2424 27.0074 55.4159 26.9274 55.6694 26.9274C55.9229 26.9274 56.0964 27.0074 56.2432 27.1542C56.4567 27.3677 56.4567 27.6612 56.4567 27.9681C56.4433 28.275 56.4567 28.5686 56.2432 28.7821ZM55.8696 27.4611C55.8295 27.4077 55.7628 27.3677 55.6694 27.3677C55.576 27.3677 55.5093 27.4077 55.4693 27.4611C55.4292 27.5278 55.3892 27.5945 55.3892 27.9681C55.3892 28.3418 55.4159 28.4085 55.4693 28.4752C55.5093 28.5286 55.576 28.5686 55.6694 28.5686C55.7628 28.5686 55.8295 28.5286 55.8696 28.4752C55.9096 28.4085 55.9496 28.3418 55.9496 27.9681C55.9363 27.5945 55.9096 27.5278 55.8696 27.4611Z" fill="#717171"/>
<path d="M57.9644 28.9956L57.6041 28.2217H57.4307V28.9956H56.9236V26.9274H57.7376C58.1913 26.9274 58.4448 27.2476 58.4448 27.5945C58.4448 27.8747 58.2713 28.0482 58.1112 28.1283L58.5515 28.9823H57.9644V28.9956ZM57.7109 27.3944H57.4307V27.808H57.7109C57.8443 27.808 57.9377 27.7013 57.9377 27.5945C57.9244 27.5011 57.8443 27.3944 57.7109 27.3944Z" fill="#717171"/>
<path d="M59.8192 27.3944V28.9956H59.3121V27.3944H58.8051V26.9407H60.3263V27.3944H59.8192Z" fill="#717171"/>
<path d="M61.3537 29.0223C61.0335 29.0223 60.7799 28.9689 60.5664 28.7554L60.8867 28.4352C60.9934 28.5419 61.1803 28.582 61.3537 28.582C61.5539 28.582 61.6473 28.5152 61.6473 28.3951L61.6072 28.2751L61.4738 28.2217L61.2203 28.1816C61.0335 28.155 60.9 28.0882 60.8066 27.9948C60.7132 27.9014 60.6599 27.7547 60.6599 27.5812C60.6599 27.2076 60.9401 26.9274 61.4071 26.9274C61.7007 26.9274 61.9275 26.9941 62.101 27.1675L61.7807 27.4878C61.6473 27.3543 61.4738 27.3677 61.3937 27.3677C61.2203 27.3677 61.1402 27.4744 61.1402 27.5545L61.1803 27.6479L61.327 27.7146L61.5806 27.7547C61.7674 27.7813 61.9008 27.8347 61.9809 27.9281C62.0876 28.0349 62.141 28.195 62.141 28.3818C62.1543 28.7954 61.7941 29.0223 61.3537 29.0223Z" fill="#717171"/>
<path d="M64.7964 28.9956V28.0082L64.5029 28.5286H64.1826L63.8891 28.0082V28.9956H63.382V26.9407H63.8891L64.3427 27.848L64.8098 26.9407H65.3035V28.9956H64.7964Z" fill="#717171"/>
<path d="M65.8505 28.9956V26.9407H67.2516V27.3944H66.3442V27.7413H67.1181V28.195H66.3442V28.5553H67.2516V28.9956H65.8505Z" fill="#717171"/>
<path d="M69.0529 28.7954C68.9061 28.9422 68.706 28.9956 68.4925 28.9956H67.7319V26.9274H68.4925C68.706 26.9274 68.9061 26.9941 69.0529 27.1275C69.2931 27.3677 69.2664 27.6346 69.2664 27.9548C69.2664 28.3017 69.2931 28.5553 69.0529 28.7954ZM68.706 27.5011C68.6659 27.4344 68.5859 27.381 68.4658 27.381H68.2389V28.5419H68.4658C68.5992 28.5419 68.6659 28.5019 68.706 28.4218C68.746 28.3685 68.7593 28.3151 68.7593 27.9548C68.7593 27.6212 68.746 27.5678 68.706 27.5011Z" fill="#717171"/>
<path d="M70.2405 26.9407H69.7334V29.0089H70.2405V26.9407Z" fill="#717171"/>
<path d="M71.4948 29.0223C71.2546 29.0223 71.0678 28.9422 70.921 28.7954C70.7075 28.5819 70.7075 28.2884 70.7075 27.9815C70.7075 27.6746 70.6941 27.381 70.921 27.1675C71.0678 27.0207 71.2546 26.9407 71.4948 26.9407C71.8817 26.9407 72.202 27.1542 72.282 27.6079H71.7616C71.7349 27.4878 71.6682 27.381 71.4948 27.381C71.4014 27.381 71.3347 27.4211 71.2947 27.4611C71.2547 27.5278 71.2146 27.5945 71.2146 27.9681C71.2146 28.3418 71.2413 28.4218 71.2947 28.4752C71.3347 28.5286 71.4014 28.5553 71.4948 28.5553C71.6682 28.5553 71.7216 28.4485 71.7616 28.3418H72.282C72.202 28.8088 71.8817 29.0223 71.4948 29.0223Z" fill="#717171"/>
<path d="M73.1895 26.9407H72.6824V29.0089H73.1895V26.9407Z" fill="#717171"/>
<path d="M74.884 28.9956L74.2168 27.9681V28.9956H73.7098V26.9407H74.1635L74.8173 27.9815V26.9407H75.3244V28.9956H74.884Z" fill="#717171"/>
<path d="M75.8582 28.9956V26.9407H77.2593V27.3944H76.3652V27.7413H77.1257V28.195H76.3652V28.5553H77.2593V28.9956H75.8582Z" fill="#717171"/>
<path d="M55.6827 21.5499L55.7361 21.4832C55.8162 21.3764 55.8829 21.2697 55.9496 21.1629L55.9763 21.1229L56.0697 20.9494L56.1097 20.856C56.1497 20.7626 56.2031 20.6559 56.2298 20.5625L56.2698 20.4557L56.3232 20.2689C56.43 19.922 56.4833 19.5483 56.4833 19.1747C56.4833 18.1473 56.083 17.2132 55.4425 16.5194C54.722 15.7321 53.6945 15.2384 52.547 15.2384H48.7307L48.6373 15.2117C48.2637 15.145 47.9701 14.8114 47.9701 14.4244C47.9701 13.9841 48.3304 13.6238 48.7707 13.6238H48.8241H55.8428V10.5548H49.5313H49.5046H48.7307C47.7566 10.5681 46.876 10.9418 46.1954 11.5422C46.102 11.6223 46.0086 11.7157 45.9152 11.8091L45.8885 11.8491C45.8218 11.9292 45.7418 12.0092 45.675 12.1026L45.6217 12.1827L45.4749 12.3962L45.3948 12.5163L45.3148 12.6631L45.208 12.8766L45.1546 12.9833C45.1146 13.0634 45.0879 13.1568 45.0612 13.2502L45.0346 13.3436C45.0079 13.437 44.9812 13.5437 44.9545 13.6372L44.9411 13.7039C44.9145 13.8106 44.9011 13.9174 44.8878 14.0375V14.0775C44.8744 14.1976 44.8744 14.3177 44.8744 14.4511C44.8744 14.5712 44.8878 14.6913 44.8878 14.798L44.9011 14.9048C44.9145 14.9849 44.9278 15.0783 44.9411 15.1583L44.9545 15.2517C44.9812 15.3585 45.0079 15.4652 45.0346 15.572L45.0612 15.6654L45.1413 15.8922L45.1947 16.0123L45.2747 16.1991L45.3415 16.3192C45.3815 16.3993 45.4349 16.4793 45.4882 16.5594L45.595 16.7062L45.675 16.8129L45.8085 16.973L45.8619 17.0264C46.022 17.2132 46.1954 17.3734 46.3956 17.5201L46.4223 17.5468C46.6358 17.7069 46.8626 17.8404 47.1028 17.9605C47.5965 18.1873 48.1436 18.3207 48.7174 18.3341H52.5336C52.9873 18.3474 53.3476 18.721 53.3476 19.1881C53.3476 19.6551 52.9606 20.0421 52.4936 20.0421H52.3735L45.4749 20.0554V23.1378H48.2637H52.4536H52.547C53.4277 23.1378 54.2416 22.8442 54.8954 22.3505L54.9088 22.3372C55.0823 22.2037 55.2557 22.0569 55.4025 21.8968L55.4292 21.8701C55.5226 21.75 55.616 21.6566 55.6827 21.5499Z" fill="#717171"/>
<path d="M43.3532 12.6764V12.6364V12.5296L43.3399 12.3829V12.3695C43.3132 12.2227 43.2865 12.076 43.2331 11.9425V11.9292C43.1664 11.7557 43.073 11.5822 42.9662 11.4221L42.9396 11.3954C42.8595 11.2887 42.7794 11.1953 42.6727 11.1152L42.6327 11.0885L42.5393 11.0218L42.4859 10.9818L42.3258 10.875L42.2724 10.835L42.1923 10.795L42.1123 10.7549L42.0322 10.7149L42.0189 10.7016H42.0055C41.7653 10.6082 41.5118 10.5548 41.2449 10.5548H33.8659C33.0386 10.5681 32.3181 11.0618 31.9845 11.7691C31.9044 11.9559 31.8377 12.1427 31.811 12.3562V12.3695L31.7977 12.5296H31.7843V23.1244H34.8534V19.3082H40.2842V23.1244H43.3532V12.7164V12.6764ZM40.2708 16.2792H34.84V13.6505H40.2708V16.2792Z" fill="#717171"/>
<path d="M73.6565 10.5415H70.2806H70.2672C69.2131 10.5415 68.2524 10.9551 67.5451 11.6356L67.4784 11.689C66.7579 10.9818 65.7838 10.5415 64.6896 10.5415H64.6763H61.3004H57.8977V23.1244L60.9935 23.1111V13.6238H61.3804H64.1425H64.1559C65.13 13.6238 65.9172 14.4111 65.9172 15.3852V15.3985V16.6928V16.9063V23.0977H68.9996V17.8804V15.3985V15.3852C68.9996 14.4111 69.7869 13.6238 70.7609 13.6238H70.7743H73.5364H73.9367V23.1111H77.0324V10.5415H73.6565Z" fill="#717171"/>
<path d="M26.7005 19.3215C26.4336 19.028 21.8167 13.437 21.8167 13.437C20.0821 11.3688 19.5884 10.5415 17.7469 10.5415H16.1724L16.1857 23.1111H19.2681V15.2117C19.535 15.5053 23.4046 20.1622 23.4046 20.1622C25.4195 22.6174 26.0733 23.031 27.5678 23.0977L27.5811 23.1111H29.7695V10.5415H26.7005V19.3215Z" fill="#717171"/>
<path d="M55.656 0.253599C53.2142 0.0934992 50.7456 0 48.2637 0C36.5881 0 25.3395 1.8415 14.7847 5.2441L10.3947 10.4881C24.0185 3.9231 39.3102 0.253599 55.4426 0.253599H55.656Z" fill="#717171"/>
<path d="M14.9715 9.74078C12.7298 10.7283 10.5148 11.7824 8.36646 12.9166L0 22.9109C4.72362 19.535 9.74076 16.5194 14.9715 13.904V9.74078Z" fill="#717171"/>
<path d="M56.3098 1.12088C41.9654 1.12088 28.315 4.05648 15.9055 9.34048H17.7469C19.4548 9.34048 20.3622 9.95428 21.3363 11.0085C22.7107 10.4347 24.0984 9.87428 25.4995 9.35388H25.5128C37.5087 4.88378 50.492 2.42858 64.0624 2.42858C68.3456 2.42858 72.5622 2.66878 76.7121 3.14908C70.1203 1.81478 63.3018 1.12088 56.3098 1.12088Z" fill="#717171"/>
<path d="M78.6603 10.8484V11.6757H78.3935V10.8484H78.1399V10.6082H78.9139V10.8484H78.6603Z" fill="#717171"/>
<path d="M79.7946 11.6757V11.1686L79.6478 11.4221H79.4743L79.3275 11.1686V11.6757H79.074V10.6082H79.3275L79.5677 11.0752L79.7946 10.6082H80.0614V11.6757H79.7946Z" fill="#717171"/>
</svg>
