<svg width="112" height="32" viewBox="0 0 112 32" fill="none" xmlns="http://www.w3.org/2000/svg">
<g opacity="0.4">
<path d="M65.9607 12.5737L61.0195 19.19H64.0391L64.9411 18.0085H70.4313L71.3725 19.19H74.3529L69.4117 12.5737H65.9607ZM65.9607 16.5514L67.6862 14.149L69.4117 16.5514H65.9607Z" fill="white"/>
<path d="M61.0589 16.5907H58.3138C58.2746 16.8664 58.2746 17.1027 58.1569 17.2208C58.0393 17.339 57.7647 17.4177 57.5687 17.4571C56.4314 17.5753 55.0981 17.4965 53.8432 17.5359C53.5295 17.5359 53.1765 17.4571 52.9412 17.4177C52.6667 17.339 52.4706 17.1027 52.3922 16.9058C52.2353 16.4332 52.2746 15.3698 52.3922 14.8579C52.5883 14.464 53.0589 14.2671 53.5687 14.2277H57.2942C57.7648 14.2671 57.7648 14.2671 57.8824 14.3853C58 14.5034 58.1961 14.661 58.1569 15.0942C59.1765 15.0942 60.0785 15.0548 60.902 15.0548C61.0589 13.6764 60.5491 13.1644 59.9216 12.8887C59.4902 12.6918 59.0197 12.5737 58.4314 12.5737C58.0393 12.4949 54 12.4949 51.8824 12.5343C50.8236 12.6918 49.8432 13.0856 49.4902 13.9127C49.3334 15.0154 49.2942 16.7482 49.5295 17.8116C49.7255 18.166 49.9608 18.5205 50.353 18.7174C50.902 19.1112 51.7648 19.1506 51.7648 19.1506H59.1765C60.2353 19.1506 60.8628 18.5598 61.0197 17.8116C61.0981 17.4571 61.0589 17.0239 61.0589 16.5907Z" fill="white"/>
<path d="M21.2941 11.3922V0.837641C21.0588 0.52258 20.7451 0.325667 20.5098 0.0499878H16.7059L15.9608 0.680111L15.2549 0.0893705H11.4118L10.7059 0.758876V5.4848L10.3922 5.16974H7.84314L7.41176 5.56356V10.2501H5.84314L5.09804 11.6285C5.09804 11.8648 5.13725 12.1405 5.05882 12.3374H0V19.4263H4.94118C4.98039 19.4263 5.05882 19.505 5.05882 19.5444V20.0958C5.33333 20.5684 5.52941 21.0803 5.80392 21.5529H7.37255C7.37255 23.1282 7.33333 24.6642 7.37255 26.0819C7.56863 26.3182 7.72549 26.5151 7.88235 26.6727H10.3137L10.6667 26.3182V30.9654C10.9412 31.2805 11.1765 31.4774 11.4118 31.753H15.2941C15.5294 31.5561 15.7255 31.3198 16 31.0835C16.2353 31.3198 16.4314 31.5561 16.7059 31.753H20.549C20.7843 31.4774 21.0588 31.2411 21.3333 30.926V20.3714H22.3137C22.5882 20.017 22.8235 19.6232 23.098 19.2294V12.5343C22.7843 12.1011 22.5882 11.7073 22.3137 11.3528L21.2941 11.3922ZM4.98039 16.315H0.705882V15.7637H4.94118V16.315H4.98039ZM5.01961 14.8973H0.745098V13.0463H5.01961V14.8973ZM7.29412 14.6216H5.88235V14.0702H7.29412V14.6216ZM7.29412 13.0463H5.80392V11.8254L6.11765 11.0771H7.2549L7.29412 13.0463ZM8.15686 6.1543L8.35294 5.91801H9.84314L10.1569 6.23307V8.91109H8.19608L8.15686 6.1543ZM10.1176 10.3682H8.19608V9.61998H10.1176V10.3682ZM15.2941 5.32727H11.4902V4.579H15.2941V5.32727ZM15.2941 3.79134H11.4902V1.31023L11.9216 0.877024H14.7843L15.2941 1.34962V3.79134ZM20.5098 5.32727H16.7451V4.579H20.5098V5.32727ZM20.5098 3.79134H16.7059V1.34962L17.098 0.955789C17.098 0.955789 17.1373 0.877024 17.2157 0.877024H20L20.5098 1.34962V3.79134ZM22.4314 15.3305H21.2941V14.7791H22.4314V15.3305ZM22.4706 13.9521H21.2941V12.0617H22L22.4706 12.6918V13.9521Z" fill="white"/>
<path d="M33.2157 17.2602C31.5295 15.6849 29.804 14.1096 28.1569 12.5343H23.9216V19.1506H26.6667V14.3459L31.8824 19.19H36.1177V12.5737H33.2157V17.2602Z" fill="white"/>
<path d="M48.3922 16.315C48.2353 15.8031 47.8432 15.5274 47.3726 15.3305C46.7844 15.0942 45.9608 15.1335 45.2549 15.0154H40.9412C40.6667 15.0154 40.4706 14.976 40.2353 14.8973C40.0785 14.8185 40 14.661 40 14.5428C39.9608 14.3065 40.1961 14.1096 40.3922 14.0702C41.6863 13.9521 43.2157 14.0308 44.5883 14.0308C44.8236 14.0308 45.0197 14.0702 45.1765 14.1884C45.3334 14.3065 45.3334 14.5034 45.4118 14.661H48.0785C48.2746 13.7552 47.9216 13.1644 47.451 12.8887C47.0981 12.6918 46.2353 12.4949 46.0785 12.4949C45.9608 12.4949 41.5687 12.4161 39.3726 12.4949C38.3138 12.6918 37.2549 12.9281 37.1765 14.1096C37.1765 14.1096 37.1765 14.8185 37.1765 14.976C37.1765 15.1335 37.2549 15.4486 37.3334 15.6061C37.451 15.8424 37.6471 16 37.8432 16.1181C38.1961 16.3544 38.7059 16.3938 39.1765 16.4726C41.0589 16.6695 43.2549 16.5119 45.1373 16.7089C45.3726 16.7482 45.5687 16.827 45.6079 17.0633C45.6863 17.339 45.4902 17.5359 45.2942 17.6147C45.2942 17.6147 45.0196 17.7328 44.7451 17.7328C44.4706 17.7328 40.7059 17.7328 40.7059 17.7328C40.3138 17.7328 40.0393 17.5359 39.9608 16.9452H37.1765V17.851C37.1765 17.851 37.2549 18.0872 37.3334 18.2448C37.5687 18.7568 38.1569 19.0324 38.9412 19.1506H46.5098C47.6863 19.1506 48.2746 18.5992 48.4706 17.8116C48.4314 17.3784 48.5098 16.7482 48.3922 16.315Z" fill="white"/>
<path d="M24.0393 21.0803H25.0589L26.706 23.1676V21.0803H27.804V25.058H26.8628L25.1373 22.8919V25.058H24.0393V21.0803Z" fill="white"/>
<path d="M29.8826 21.041H30.9414L32.6277 25.058H31.4512L31.1767 24.3491H29.6473L29.3728 25.058H28.1963L29.8826 21.041ZM30.8237 23.4827L30.3924 22.38L29.961 23.4827H30.8237Z" fill="white"/>
<path d="M33.5295 22.0255H32.353V21.041H35.804V22.0255H34.6275V25.0186H33.5295V22.0255Z" fill="white"/>
<path d="M36.3921 21.0803H37.4901V25.058H36.3921V21.0803Z" fill="white"/>
<path d="M38.1177 23.0889C38.1177 21.9468 39.0196 21.0016 40.2745 21.0016C41.4902 21.0016 42.3922 21.9074 42.3922 23.0495V23.0889C42.3922 24.231 41.4902 25.1762 40.2353 25.1762C38.9804 25.1762 38.1177 24.231 38.1177 23.0889ZM41.2549 23.0889C41.2549 22.4981 40.8628 22.0255 40.2353 22.0255C39.6079 22.0255 39.2157 22.4981 39.2157 23.0889V23.1283C39.2157 23.6796 39.6079 24.1916 40.2353 24.1916C40.8628 24.1522 41.2549 23.6402 41.2549 23.0889Z" fill="white"/>
<path d="M42.9805 21.0803H44.0001L45.6471 23.1676V21.0803H46.7452V25.058H45.7648L44.0785 22.8919V25.058H42.9805V21.0803Z" fill="white"/>
<path d="M48.8627 21.041H49.9215L51.6078 25.058H50.4706L50.1961 24.3491H48.6666L48.3921 25.058H47.2549L48.8627 21.041ZM49.8039 23.4827L49.3725 22.38L48.9412 23.4827H49.8039Z" fill="white"/>
<path d="M52.0393 21.0803H53.1373V24.0734H55.0589V25.058H52.0393V21.0803Z" fill="white"/>
<path d="M56.9021 24.4672L57.4903 23.7189C57.8825 24.034 58.3139 24.1915 58.7452 24.1915C59.059 24.1915 59.2158 24.0734 59.2158 23.9159V23.8765C59.2158 23.7189 59.0982 23.6008 58.5492 23.4827C57.6864 23.2857 57.059 23.0494 57.059 22.2618V22.2224C57.059 21.4741 57.6472 20.9622 58.5884 20.9622C59.255 20.9622 59.7648 21.1591 60.2354 21.4741L59.6864 22.2618C59.3335 21.9861 58.9413 21.868 58.5884 21.868C58.3139 21.868 58.1962 21.9861 58.1962 22.1436V22.183C58.1962 22.3799 58.3531 22.4587 58.9021 22.5768C59.8041 22.7738 60.3923 23.0494 60.3923 23.7977V23.8371C60.3923 24.6641 59.7648 25.1367 58.7845 25.1367C58.0394 25.0973 57.4119 24.9004 56.9021 24.4672Z" fill="white"/>
<path d="M61.8039 22.0255H60.6274V21.041H64.0784V22.0255H62.902V25.0186H61.8039V22.0255Z" fill="white"/>
<path d="M64.6274 21.0803H66.5098C67.098 21.0803 67.5294 21.2379 67.8039 21.5135C68.0392 21.7498 68.1569 22.0255 68.1569 22.4587V22.4981C68.1569 23.0888 67.8431 23.522 67.3333 23.719L68.2745 25.0974H67.0196L66.2353 23.9159H65.7647V25.0974H64.6667L64.6274 21.0803ZM66.4314 22.9707C66.7843 22.9707 67.0196 22.7738 67.0196 22.4981C67.0196 22.183 66.7843 22.0255 66.4314 22.0255H65.6863V22.9707H66.4314Z" fill="white"/>
<path d="M68.7453 21.0803H71.9217V22.0255H69.8041V22.6162H71.6864V23.4827H69.8041V24.1128H71.9217V25.058H68.7061L68.7453 21.0803Z" fill="white"/>
<path d="M72.5491 21.0803H73.5687L75.2157 23.1676V21.0803H76.3138V25.058H75.3726L73.6863 22.8919V25.058H72.5883L72.5491 21.0803Z" fill="white"/>
<path d="M76.9412 23.0889C76.9412 21.9074 77.8431 21.0016 79.0588 21.0016C79.7647 21.0016 80.2353 21.1985 80.6667 21.5529L80.0392 22.3406C79.7647 22.1043 79.4902 21.9862 79.098 21.9862C78.549 21.9862 78.0784 22.4587 78.0784 23.0495V23.0889C78.0784 23.719 78.5098 24.1916 79.1372 24.1916C79.4117 24.1916 79.6078 24.1128 79.7647 24.0341V23.5615H78.9804V22.7344H80.7843V24.5066C80.3529 24.8611 79.8039 25.0974 79.0588 25.0974C77.8431 25.1368 76.9412 24.2703 76.9412 23.0889Z" fill="white"/>
<path d="M82.353 22.0255H81.1765V21.041H84.6275V22.0255H83.451V25.0186H82.353V22.0255Z" fill="white"/>
<path d="M85.2158 21.0803H86.3139V22.5769H87.7256V21.0803H88.8237V25.058H87.7256V23.5614H86.3139V25.058H85.2158V21.0803Z" fill="white"/>
<path d="M92.5492 21.041H93.608L95.2943 25.058H94.1178L93.8433 24.3491H92.3139L92.0394 25.058H90.9021L92.5492 21.041ZM93.5296 23.4827L93.0982 22.38L92.6668 23.4827H93.5296Z" fill="white"/>
<path d="M95.7256 21.0803H96.7452L98.3923 23.1676V21.0803H99.4903V25.058H98.5491L96.8628 22.8919V25.058H95.7648L95.7256 21.0803Z" fill="white"/>
<path d="M100.235 21.0803H101.765C103.177 21.0803 104 21.9074 104 23.0495V23.0888C104 24.2309 103.177 25.0974 101.765 25.0974H100.235V21.0803ZM101.333 22.0255V24.0734H101.765C102.431 24.0734 102.863 23.719 102.863 23.0888V23.0495C102.863 22.4193 102.431 22.0255 101.765 22.0255H101.333Z" fill="white"/>
<path d="M23.8823 29.8627C23.8823 28.6813 24.7843 27.7755 25.9608 27.7755C26.7843 27.7755 27.2941 28.1299 27.647 28.6025L26.8235 29.2326C26.5882 28.9569 26.3529 28.76 25.9608 28.76C25.4117 28.76 25.0196 29.2326 25.0196 29.8233V29.8627C25.0196 30.4535 25.4117 30.9261 25.9608 30.9261C26.3529 30.9261 26.5882 30.7292 26.8627 30.4535L27.6862 31.0442C27.2941 31.5562 26.7843 31.95 25.9215 31.95C24.7843 31.9106 23.8823 31.0442 23.8823 29.8627Z" fill="white"/>
<path d="M27.9607 29.8627C27.9607 28.7206 28.8627 27.7755 30.1176 27.7755C31.3725 27.7755 32.2352 28.6813 32.2352 29.8233V29.8627C32.2352 31.0048 31.3332 31.95 30.0783 31.95C28.8627 31.95 27.9607 31.0048 27.9607 29.8627ZM31.0979 29.8627C31.0979 29.272 30.7058 28.7994 30.0783 28.7994C29.4901 28.7994 29.0587 29.272 29.0587 29.8627V29.9021C29.0587 30.4535 29.4509 30.9654 30.0783 30.9654C30.7058 30.9261 31.0979 30.4535 31.0979 29.8627Z" fill="white"/>
<path d="M32.8235 27.8936H33.8431L35.4902 29.9808V27.8936H36.5882V31.8712H35.647L33.9607 29.7052V31.8712H32.8627V27.8936H32.8235Z" fill="white"/>
<path d="M37.3333 27.8936H38.8627C40.2744 27.8936 41.098 28.7206 41.098 29.8627V29.9021C41.098 31.0442 40.2744 31.9106 38.8627 31.9106H37.3333V27.8936ZM38.4313 28.8387V30.8866H38.8627C39.5293 30.8866 39.9607 30.5322 39.9607 29.9021V29.8627C39.9607 29.2326 39.5293 28.8387 38.8627 28.8387H38.4313Z" fill="white"/>
<path d="M41.7646 27.8936H42.8627V31.8712H41.7646V27.8936Z" fill="white"/>
<path d="M44.5881 28.8388H43.4116V27.8542H46.8626V28.8388H45.6861V31.8318H44.5881V28.8388Z" fill="white"/>
<path d="M47.4509 27.8936H48.549V31.8712H47.4509V27.8936Z" fill="white"/>
<path d="M49.1765 29.8627C49.1765 28.7206 50.0785 27.7755 51.3334 27.7755C52.5491 27.7755 53.451 28.6813 53.451 29.8233V29.8627C53.451 31.0048 52.5491 31.95 51.2942 31.95C50.0785 31.95 49.1765 31.0048 49.1765 29.8627ZM52.3138 29.8627C52.3138 29.272 51.9216 28.7994 51.2942 28.7994C50.7059 28.7994 50.2746 29.272 50.2746 29.8627V29.9021C50.2746 30.4535 50.6667 30.9654 51.2942 30.9654C51.9216 30.9261 52.3138 30.4535 52.3138 29.8627Z" fill="white"/>
<path d="M54.0784 27.8936H55.098L56.745 29.9808V27.8936H57.8431V31.8712H56.9019L55.2156 29.7052V31.8712H54.0784V27.8936Z" fill="white"/>
<path d="M58.5881 27.8936H59.6862V31.8712H58.5881V27.8936Z" fill="white"/>
<path d="M60.4707 27.8936H61.4903L63.1374 29.9808V27.8936H64.2354V31.8712H63.2942L61.5687 29.6658V31.8318H60.4707V27.8936Z" fill="white"/>
<path d="M64.8628 29.8627C64.8628 28.6813 65.7648 27.7755 66.9804 27.7755C67.6863 27.7755 68.1569 27.9724 68.5883 28.3268L67.9608 29.1145C67.6863 28.8782 67.4118 28.76 67.0197 28.76C66.4706 28.76 66 29.2326 66 29.8233V29.8627C66 30.4929 66.4314 30.9654 67.0589 30.9654C67.3334 30.9654 67.5295 30.8867 67.6863 30.8079V30.3747H66.902V29.5477H68.7059V31.3199C68.2746 31.6743 67.7255 31.9106 66.9804 31.9106C65.7648 31.9106 64.8628 31.0836 64.8628 29.8627Z" fill="white"/>
<path d="M72.3529 27.8542H73.4117L75.098 31.8712H73.9215L73.647 31.1623H72.1176L71.8431 31.8712H70.7058L72.3529 27.8542ZM73.3333 30.2959L72.9019 29.1932L72.4705 30.2959H73.3333Z" fill="white"/>
<path d="M75.1765 31.2411L75.7647 30.4928C76.1569 30.8079 76.5883 30.9654 77.0196 30.9654C77.3334 30.9654 77.4902 30.8473 77.4902 30.6897V30.6503C77.4902 30.4928 77.3726 30.3747 76.8236 30.2565C75.9608 30.0596 75.3334 29.8233 75.3334 29.0356V28.9963C75.3334 28.248 75.9216 27.736 76.8628 27.736C77.5295 27.736 78.0393 27.9329 78.5098 28.248L77.9608 29.0356C77.6079 28.76 77.2157 28.6418 76.8628 28.6418C76.5883 28.6418 76.4706 28.76 76.4706 28.9175V28.9569C76.4706 29.1538 76.6275 29.2326 77.1765 29.3507C78.0785 29.5476 78.6667 29.8233 78.6667 30.5716V30.611C78.6667 31.438 78.0393 31.9106 77.0589 31.9106C76.353 31.9106 75.6863 31.7137 75.1765 31.2411Z" fill="white"/>
<path d="M78.8628 31.2411L79.451 30.4928C79.8432 30.8079 80.2746 30.9654 80.7059 30.9654C81.0197 30.9654 81.1765 30.8473 81.1765 30.6897V30.6503C81.1765 30.4928 81.0589 30.3747 80.5099 30.2565C79.6471 30.0596 79.0197 29.8233 79.0197 29.0356V28.9963C79.0197 28.248 79.6079 27.736 80.5491 27.736C81.2157 27.736 81.7255 27.9329 82.1961 28.248L81.6471 29.0356C81.2942 28.76 80.902 28.6418 80.5491 28.6418C80.2746 28.6418 80.1569 28.76 80.1569 28.9175V28.9569C80.1569 29.1538 80.3138 29.2326 80.8628 29.3507C81.7648 29.5476 82.353 29.8233 82.353 30.5716V30.611C82.353 31.438 81.7255 31.9106 80.7451 31.9106C80.0393 31.9106 79.3726 31.7137 78.8628 31.2411Z" fill="white"/>
<path d="M82.7842 29.8627C82.7842 28.7206 83.6861 27.7755 84.941 27.7755C86.1567 27.7755 87.0587 28.6813 87.0587 29.8233V29.8627C87.0587 31.0048 86.1567 31.95 84.9018 31.95C83.6861 31.9106 82.7842 31.0048 82.7842 29.8627ZM85.9214 29.8627C85.9214 29.272 85.5293 28.7994 84.9018 28.7994C84.3136 28.7994 83.8822 29.272 83.8822 29.8627V29.9021C83.8822 30.4535 84.2744 30.9654 84.9018 30.9654C85.5293 30.9261 85.9214 30.4535 85.9214 29.8627Z" fill="white"/>
<path d="M87.5293 29.8627C87.5293 28.6813 88.4313 27.7755 89.6077 27.7755C90.4313 27.7755 90.9411 28.1299 91.294 28.6025L90.4705 29.2326C90.2352 28.9569 89.9999 28.76 89.6077 28.76C89.0587 28.76 88.6665 29.2326 88.6665 29.8233V29.8627C88.6665 30.4535 89.0587 30.9261 89.6077 30.9261C89.9999 30.9261 90.2352 30.7292 90.5097 30.4535L91.3332 31.0442C90.9803 31.5562 90.4705 31.95 89.6077 31.95C88.4313 31.9106 87.5293 31.0442 87.5293 29.8627Z" fill="white"/>
<path d="M91.8823 27.8936H92.9804V31.8712H91.8823V27.8936Z" fill="white"/>
<path d="M95.1372 27.8542H96.196L97.8823 31.8712H96.7058L96.4313 31.1623H94.8627L94.5882 31.8712H93.4509L95.1372 27.8542ZM96.0784 30.2959L95.647 29.1932L95.2156 30.2959H96.0784Z" fill="white"/>
<path d="M98.7844 28.8388H97.6079V27.8542H101.059V28.8388H99.8824V31.8318H98.7844V28.8388Z" fill="white"/>
<path d="M101.608 27.8936H102.706V31.8712H101.608V27.8936Z" fill="white"/>
<path d="M103.373 29.8627C103.373 28.7206 104.275 27.7755 105.529 27.7755C106.745 27.7755 107.647 28.6813 107.647 29.8233V29.8627C107.647 31.0048 106.745 31.95 105.49 31.95C104.275 31.9106 103.373 31.0048 103.373 29.8627ZM106.51 29.8627C106.51 29.272 106.118 28.7994 105.49 28.7994C104.902 28.7994 104.471 29.272 104.471 29.8627V29.9021C104.471 30.4535 104.863 30.9654 105.49 30.9654C106.078 30.9261 106.51 30.4535 106.51 29.8627Z" fill="white"/>
<path d="M108.235 27.8936H109.255L110.902 29.9808V27.8936H112V31.8712H111.059L109.373 29.7052V31.8712H108.275V27.8936H108.235Z" fill="white"/>
<path d="M71.8823 14.2671C71.8823 13.2825 72.6666 12.4949 73.647 12.4949C74.6274 12.4949 75.4117 13.2825 75.4117 14.2671C75.4117 15.2517 74.6274 16.0393 73.647 16.0393C72.6666 16.0393 71.8823 15.2517 71.8823 14.2671ZM75.2157 14.2671C75.2157 13.4007 74.549 12.6918 73.647 12.6918C72.7451 12.6918 72.0784 13.4007 72.0784 14.2671C72.0784 15.1335 72.7451 15.8424 73.647 15.8424C74.549 15.8424 75.2157 15.1335 75.2157 14.2671ZM72.9412 13.2825H73.7647C74.0392 13.2825 74.1961 13.3613 74.3529 13.4794C74.4706 13.5976 74.5098 13.7157 74.5098 13.8733C74.5098 14.1883 74.3529 14.3459 74.1176 14.464L74.5882 15.1335H74.0784L73.6862 14.5428H73.3725V15.1335H72.9412V13.2825ZM73.7647 14.1883C73.9608 14.1883 74.0784 14.0702 74.0784 13.9127C74.0784 13.7157 73.9608 13.637 73.7647 13.637H73.3725V14.1883H73.7647Z" fill="white"/>
</g>
</svg>
