<svg width="46" height="30" viewBox="0 0 46 30" fill="none" xmlns="http://www.w3.org/2000/svg">
<g opacity="0.4">
<path d="M5.85971 22.8342C5.85971 22.9682 5.83232 23.1021 5.83232 23.2361C5.83232 25.3303 5.83232 27.4245 5.83232 29.5188C5.83232 29.9754 5.81405 29.9906 5.35137 29.9906H0.986325C0.572346 29.9906 0.54495 29.9632 0.54495 29.5462C0.54495 25.8224 0.54495 22.1007 0.54495 18.3809C0.54495 17.967 0.572346 17.9396 0.992413 17.9396C3.42758 17.9396 5.86276 17.9396 8.29793 17.9396C8.52268 17.9357 8.74312 17.8772 8.94021 17.7691C9.07387 17.6828 9.17585 17.5553 9.23075 17.406C9.28566 17.2566 9.29052 17.0935 9.2446 16.9411C9.20129 16.7655 9.09978 16.6097 8.95662 16.4992C8.81346 16.3886 8.63708 16.3298 8.45621 16.3323C8.0331 16.3323 7.60999 16.3323 7.18688 16.3323H3.04405C2.94825 16.3495 2.84948 16.3354 2.76232 16.2921C2.67517 16.2488 2.60425 16.1786 2.56005 16.0919C1.75645 14.5121 0.958929 12.9627 0.161411 11.4072C0.134015 11.3524 0.118795 11.2885 0.0792236 11.1789C0.22229 11.1789 0.334917 11.1576 0.447543 11.1576C3.18711 11.1576 5.92668 11.118 8.66625 11.1576C10.021 11.1797 11.3242 11.681 12.3445 12.5725C13.3648 13.4641 14.0363 14.6883 14.2397 16.0279C14.5928 18.3596 13.7801 20.2438 11.902 21.6593C11.8502 21.6842 11.8045 21.7203 11.7683 21.765C11.732 21.8097 11.7062 21.8619 11.6925 21.9177C11.6788 21.9736 11.6777 22.0318 11.6892 22.0882C11.7006 22.1445 11.7245 22.1977 11.7589 22.2437C12.8821 24.6485 13.9932 27.0623 15.1073 29.4731C15.1712 29.6071 15.229 29.7471 15.3143 29.9358C15.2025 29.9558 15.0897 29.969 14.9764 29.9754C13.3266 29.9754 11.6767 29.9754 10.0269 29.9754C9.91425 29.9818 9.80258 29.9514 9.70869 29.8888C9.61481 29.8262 9.54381 29.7348 9.50638 29.6284C8.42476 27.5199 7.34009 25.4084 6.25238 23.2939C6.16715 23.1234 6.0667 22.9621 5.97234 22.7977L5.85971 22.8342Z" fill="white"/>
<path d="M28.659 11.1819L28.0045 12.8774C27.6088 13.8758 27.1979 14.8682 26.8265 15.8727C26.7879 16.016 26.6981 16.1404 26.5743 16.2222C26.4504 16.3041 26.3008 16.3378 26.1538 16.3171C24.6592 16.2988 23.1616 16.3171 21.6639 16.3171C21.2408 16.3171 21.2256 16.3171 21.2195 16.7554C21.2195 17.0385 21.2195 17.3216 21.2195 17.6016C21.2195 17.8817 21.3169 17.9395 21.5696 17.9365C22.9028 17.9365 24.2391 17.9365 25.5724 17.9365H25.9772C25.9316 18.0887 25.9042 18.1891 25.8676 18.2835C25.2589 19.8055 24.6501 21.3457 24.0413 22.8799C24.0138 22.9896 23.9466 23.0851 23.8527 23.1481C23.7588 23.2111 23.6448 23.237 23.5329 23.2208C22.8937 23.2208 22.2514 23.2208 21.6122 23.2208C21.3078 23.2208 21.2013 23.3182 21.2013 23.6256C21.2013 25.452 21.2013 27.2784 21.2013 29.1261C21.2013 30.1154 21.3047 29.9936 20.3368 29.9967C18.9792 29.9967 17.6226 29.9967 16.267 29.9967C15.8743 29.9967 15.8439 29.9662 15.8439 29.5675C15.8439 23.581 15.8439 17.5945 15.8439 11.6081C15.8439 11.2124 15.8743 11.1819 16.27 11.1789H28.2815C28.385 11.1576 28.4885 11.1697 28.659 11.1819Z" fill="white"/>
<path d="M37.4042 25.4826C37.3129 25.6804 37.2551 25.787 37.2064 25.9118C36.7163 27.1294 36.2232 28.3652 35.7483 29.6011C35.7194 29.7208 35.6478 29.8258 35.5469 29.8965C35.446 29.9671 35.3228 29.9984 35.2004 29.9846C33.5962 29.9846 31.989 29.9846 30.3849 29.9846C30.2783 29.9846 30.1748 29.9846 29.9891 29.9633C32.4608 23.7232 34.9112 17.5348 37.4012 11.2399C39.8881 17.5196 42.3385 23.7201 44.8132 29.9603C44.6306 29.9603 44.5088 29.9846 44.4023 29.9846C42.8073 29.9846 41.2122 29.9846 39.6172 29.9846C39.495 30.0013 39.371 29.9728 39.2684 29.9044C39.1657 29.836 39.0917 29.7324 39.0602 29.6132C38.5883 28.3774 38.0922 27.1507 37.6021 25.924C37.5564 25.8052 37.4986 25.6896 37.4042 25.4826Z" fill="white"/>
<path d="M30.2905 11.2886C30.3819 11.5047 30.4458 11.6508 30.5036 11.8C31.3225 13.8638 32.1474 15.9276 32.9388 17.9975C33.0119 18.2064 33.0119 18.4339 32.9388 18.6428C31.5112 22.2956 30.0623 25.9179 28.6316 29.5584C28.5992 29.6915 28.5197 29.8083 28.4077 29.8873C28.2958 29.9662 28.159 30.0018 28.0228 29.9877C26.4612 29.9694 24.8966 29.9877 23.3351 29.9877C22.8724 29.9877 22.8633 29.9877 23.0307 29.5341C25.06 24.3857 27.0984 19.2374 29.146 14.089C29.4829 13.2327 29.8218 12.3773 30.1627 11.523C30.1931 11.4621 30.2205 11.4195 30.2905 11.2886Z" fill="white"/>
<path d="M0 7.98883C0.304396 7.61747 0.493122 7.57485 0.885794 7.81533C0.999207 7.88841 1.13001 7.93002 1.2648 7.9359C1.39959 7.94179 1.53352 7.91173 1.65287 7.84881C2.10947 7.64791 2.58128 7.48353 3.04396 7.3009C3.55126 7.10699 4.0044 6.79376 4.36505 6.38771C4.63596 6.08331 5.03167 5.85197 5.21735 5.50496C5.59086 4.80018 5.90645 4.06619 6.16098 3.31026C6.20385 3.14464 6.28721 2.99228 6.40357 2.86688C6.51994 2.74148 6.66566 2.64698 6.82761 2.59188C7.21115 2.44882 7.25377 2.36663 7.04982 2.0044C6.79555 1.62213 6.6965 1.15734 6.77282 0.704625C6.85167 0.482723 7.00221 0.293421 7.20066 0.166633C7.39912 0.0398451 7.63416 -0.0171994 7.86865 0.00451346C8.08216 -0.0114778 8.29398 0.0526161 8.4628 0.1843C8.63163 0.315985 8.74536 0.505821 8.78184 0.716801C8.80769 0.907578 8.82293 1.09964 8.8275 1.29211C8.8275 1.47475 8.8275 1.65434 8.8275 1.86438C9.45772 1.64038 10.024 1.26637 10.4773 0.774637C10.5689 0.650691 10.6903 0.55192 10.8302 0.48752C10.9702 0.423121 11.1242 0.395186 11.2779 0.406317C11.1764 0.525847 11.0828 0.651937 10.9978 0.783768C10.9617 0.881548 10.9402 0.984113 10.9339 1.08816C11.0232 1.09271 11.1126 1.09271 11.2018 1.08816C11.2786 1.07942 11.3548 1.06621 11.4301 1.04859L11.4788 1.17644C11.2261 1.27993 10.9765 1.38952 10.7239 1.48084C10.52 1.52773 10.3219 1.59715 10.1334 1.68783C9.89085 1.85233 9.66996 2.04663 9.47586 2.26618C9.14103 2.64972 8.83663 3.05761 8.48962 3.48377C8.75749 3.87948 8.76357 4.53393 8.81532 5.16099C8.9486 6.13786 9.2011 7.09471 9.56718 8.01014C9.63137 8.2157 9.75026 8.39992 9.91112 8.54309C10.072 8.68626 10.2688 8.78297 10.4804 8.82288C10.6098 8.84682 10.7306 8.90458 10.8304 8.9903L9.76504 9.13641C9.278 8.83201 9.20495 8.11364 8.88838 7.55355C8.5718 6.99346 8.33437 6.3664 8.03911 5.72717C7.82841 5.91423 7.63298 6.11781 7.45467 6.33596C7.27049 6.61625 7.10082 6.90581 6.94633 7.20349C6.9058 7.25139 6.87775 7.30857 6.86467 7.36994C6.85159 7.43131 6.8539 7.49496 6.87137 7.55522C6.88885 7.61549 6.92096 7.67049 6.96484 7.71534C7.00872 7.76019 7.06301 7.79349 7.12288 7.81228C7.34171 7.92258 7.53151 8.08283 7.67693 8.28007C7.82236 8.47732 7.91931 8.70602 7.95997 8.94768C8.05737 9.3434 7.90822 9.63562 7.50033 9.69041C6.88907 9.77339 6.2725 9.81103 5.65569 9.80304C4.4655 9.77868 3.27531 9.69954 2.08512 9.64779C1.88117 9.64779 1.67722 9.69345 1.47632 9.68432C1.27542 9.67519 1.09278 9.63562 1.19932 9.34644C1.22063 9.29469 1.16888 9.18816 1.11713 9.1425C1.04579 9.07578 0.955278 9.03319 0.858398 9.02074C0.407891 8.99639 0.213078 8.79853 0.280045 8.3328C0.304396 8.23844 0.109583 8.11668 0 7.98883Z" fill="white"/>
<path d="M11.3784 3.52028H12.3464C12.5175 3.51663 12.6872 3.55202 12.8426 3.62377C12.9713 3.68659 13.0776 3.78756 13.147 3.91295C13.2189 4.0465 13.2546 4.19658 13.2505 4.34823C13.255 4.49798 13.2192 4.64621 13.147 4.77743C13.0759 4.89996 12.9699 4.99852 12.8426 5.06052C12.6843 5.1293 12.5128 5.16255 12.3403 5.15793H11.6463V4.77134H12.2764C12.374 4.77347 12.4711 4.75694 12.5625 4.72264C12.6307 4.69295 12.6881 4.643 12.7269 4.57957C12.7657 4.50881 12.7846 4.42888 12.7817 4.34823C12.7845 4.26566 12.7656 4.18378 12.7269 4.1108C12.6899 4.04332 12.6308 3.99065 12.5595 3.96165C12.4688 3.92448 12.3713 3.90685 12.2733 3.9099H11.8441V6.09243H11.3784V3.52028ZM13.3509 6.09243H12.8304L12.2033 4.93572H12.7117L13.3509 6.09243Z" fill="white"/>
<path d="M13.8075 6.01935C13.6654 5.94081 13.5507 5.82082 13.4787 5.67538C13.4003 5.51115 13.3617 5.33073 13.3661 5.14878C13.3614 4.96646 13.4011 4.78575 13.4818 4.62217C13.5527 4.47575 13.6634 4.3523 13.8014 4.26603C13.941 4.19007 14.0968 4.14876 14.2557 4.14558C14.4147 4.14241 14.572 4.17745 14.7146 4.24776C14.846 4.3238 14.952 4.43716 15.019 4.57347C15.1036 4.74227 15.1444 4.92963 15.1377 5.11834V5.2614H13.5822V4.95701H14.7328C14.7313 4.87554 14.7116 4.79544 14.675 4.72262C14.6376 4.65905 14.584 4.60654 14.5198 4.57042C14.4497 4.52937 14.3696 4.50831 14.2884 4.50954C14.2042 4.50892 14.1215 4.53126 14.0491 4.57417C13.9767 4.61708 13.9173 4.67893 13.8775 4.75306C13.8374 4.82796 13.8165 4.91162 13.8166 4.99658V5.2614C13.8111 5.36637 13.832 5.47104 13.8775 5.5658C13.917 5.64258 13.9771 5.70687 14.051 5.75148C14.1175 5.78609 14.1902 5.80714 14.265 5.81341C14.3397 5.81968 14.4149 5.81105 14.4863 5.78801C14.5345 5.77466 14.5793 5.75075 14.6172 5.718C14.6529 5.69026 14.682 5.65491 14.7024 5.6145H15.1499C15.1263 5.72802 15.0726 5.83314 14.9946 5.9189C14.9155 6.00641 14.8162 6.07329 14.7054 6.11371C14.5779 6.16085 14.4426 6.18357 14.3067 6.18068C14.1286 6.17373 13.9559 6.11791 13.8075 6.01935Z" fill="white"/>
<path d="M16.5318 5.21584H15.369V4.84143H16.5318V5.21584Z" fill="white"/>
<path d="M16.8392 3.52026H18.5195V3.91294H17.3019V4.61913H18.4282V5.00572H17.3019V5.71496H18.5195V6.09241H16.8392V3.52026Z" fill="white"/>
<path d="M19.0917 6.01936C18.9657 5.9341 18.8665 5.81482 18.8056 5.67539C18.7319 5.50558 18.6966 5.32162 18.7021 5.13661C18.6972 4.95164 18.7325 4.76782 18.8056 4.59783C18.8682 4.46183 18.9686 4.34668 19.0948 4.26603C19.2167 4.18899 19.3584 4.14882 19.5027 4.15036C19.5913 4.14915 19.6793 4.16572 19.7614 4.19907C19.8255 4.22559 19.8835 4.26495 19.9319 4.31474C19.9752 4.36136 20.012 4.41357 20.0414 4.46998V3.52026H20.498V6.09241H20.0901V5.78802H20.0627V5.80628C20.031 5.86367 19.9921 5.91684 19.9471 5.96457C19.8973 6.01406 19.8384 6.05335 19.7736 6.08024C19.6922 6.11223 19.6053 6.12775 19.5179 6.1259C19.3683 6.13494 19.2195 6.09775 19.0917 6.01936ZM19.874 5.68757C19.9463 5.62952 20.0011 5.55261 20.0323 5.46536C20.1054 5.25124 20.1054 5.01894 20.0323 4.80482C20.0017 4.71891 19.9467 4.64381 19.874 4.5887C19.8007 4.53836 19.7133 4.51276 19.6244 4.51564C19.535 4.51229 19.4471 4.5391 19.3748 4.59174C19.3021 4.64804 19.2471 4.72414 19.2165 4.8109C19.185 4.91541 19.1716 5.02454 19.177 5.13357C19.1749 5.24558 19.1935 5.35702 19.2317 5.46231C19.2619 5.54936 19.3156 5.6263 19.387 5.68452C19.4582 5.74 19.5464 5.76905 19.6366 5.76671C19.7221 5.76586 19.8051 5.73818 19.874 5.68757Z" fill="white"/>
<path d="M22.0657 4.1687H22.5254V6.09249H22.081V5.76069H22.0597C22.0132 5.86971 21.936 5.9628 21.8374 6.02856C21.7295 6.09759 21.6033 6.13259 21.4752 6.12901C21.3569 6.13197 21.2401 6.10249 21.1373 6.04378C21.0379 5.98355 20.9593 5.89432 20.9121 5.78809C20.8545 5.66538 20.8263 5.53092 20.8299 5.39542V4.17783H21.2834V5.3315C21.2817 5.40512 21.2974 5.47812 21.3291 5.54457C21.3597 5.60226 21.4059 5.65023 21.4624 5.68304C21.5189 5.71585 21.5834 5.73221 21.6487 5.73025C21.7198 5.73193 21.79 5.71515 21.8527 5.68155C21.9177 5.64644 21.9715 5.59369 22.0079 5.52935C22.0473 5.45541 22.0672 5.37265 22.0657 5.28888V4.1687Z" fill="white"/>
<path d="M23.1342 6.01642C23.0005 5.93084 22.8947 5.80813 22.8298 5.66332C22.7513 5.50128 22.7127 5.32281 22.7171 5.1428C22.7134 4.96287 22.7519 4.78456 22.8298 4.62229C22.8991 4.4748 23.0102 4.35095 23.1494 4.26614C23.2965 4.17873 23.4653 4.13443 23.6364 4.1383C23.7799 4.13705 23.922 4.1661 24.0534 4.22353C24.1722 4.27655 24.2738 4.36159 24.3469 4.46911C24.42 4.57664 24.4618 4.70241 24.4674 4.83232H24.0474C24.0355 4.77143 24.0117 4.71349 23.9773 4.66186C23.9425 4.61323 23.8966 4.57358 23.8434 4.54619C23.7848 4.51716 23.7201 4.50255 23.6547 4.50357C23.5664 4.50114 23.4797 4.52789 23.4081 4.57967C23.332 4.63334 23.2736 4.70863 23.2407 4.79579C23.1984 4.90227 23.1777 5.01608 23.1798 5.13063C23.1782 5.24711 23.1989 5.36283 23.2407 5.47155C23.2744 5.55827 23.3313 5.63408 23.4051 5.69072C23.478 5.74213 23.5655 5.7688 23.6547 5.76682C23.7178 5.76816 23.7804 5.75461 23.8373 5.72724C23.8917 5.70317 23.9389 5.66541 23.9743 5.61766C24.01 5.56418 24.0348 5.50419 24.0474 5.44111H24.4796C24.4717 5.57143 24.4297 5.69739 24.3578 5.80639C24.2857 5.91224 24.1871 5.99727 24.0717 6.05295C23.9262 6.11473 23.7686 6.14324 23.6106 6.1364C23.4527 6.12955 23.2982 6.08752 23.1585 6.01338L23.1342 6.01642Z" fill="white"/>
<path d="M25.7002 5.25543H25.5936L25.3531 5.27065C25.2594 5.27276 25.1684 5.30241 25.0914 5.35588C25.0615 5.37787 25.0376 5.40687 25.0217 5.44032C25.0058 5.47378 24.9983 5.51064 25 5.54765C24.9973 5.59789 25.0124 5.64749 25.0427 5.68767C25.0721 5.72744 25.1122 5.75804 25.1583 5.77595C25.212 5.79512 25.2687 5.8044 25.3258 5.80334C25.4082 5.80536 25.4899 5.78651 25.5632 5.74855C25.6289 5.71499 25.6846 5.66457 25.7245 5.60244C25.761 5.54181 25.7799 5.47228 25.7793 5.40154V4.79275C25.7811 4.7354 25.7674 4.67862 25.7397 4.62837C25.7138 4.5815 25.6715 4.54577 25.621 4.52792C25.5603 4.50292 25.4948 4.49149 25.4292 4.49444C25.3438 4.48982 25.259 4.51104 25.1857 4.55532C25.1262 4.59386 25.0837 4.65379 25.067 4.72273H24.6226C24.6321 4.61144 24.6745 4.50548 24.7444 4.41834C24.8176 4.32632 24.9144 4.25585 25.0244 4.21439C25.1561 4.16214 25.2967 4.13628 25.4384 4.13829C25.569 4.1372 25.6987 4.15883 25.8219 4.20222C25.9431 4.23979 26.0495 4.31428 26.1263 4.41529C26.2064 4.52903 26.2471 4.66589 26.242 4.80492V6.09252H25.7945V5.82465C25.7469 5.91808 25.6728 5.99537 25.5814 6.04686C25.4724 6.10636 25.3495 6.13578 25.2253 6.13209C25.1103 6.13319 24.9962 6.11038 24.8905 6.06512C24.797 6.02548 24.716 5.96133 24.6561 5.87944C24.5987 5.78281 24.5692 5.67219 24.5709 5.55982C24.5639 5.47621 24.5791 5.39225 24.6149 5.31638C24.6507 5.2405 24.7059 5.17539 24.7748 5.12758C24.9321 5.03211 25.1114 4.97865 25.2953 4.97234H25.484H25.688H25.8128V5.27674L25.7002 5.25543Z" fill="white"/>
<path d="M27.4626 4.51562H26.3516V4.16861H27.4626V4.51562ZM27.0912 3.70288V5.52926C27.0896 5.57643 27.099 5.62332 27.1186 5.66624C27.1339 5.69573 27.1585 5.7193 27.1887 5.73321C27.223 5.7487 27.2606 5.75599 27.2982 5.75451H27.4413H27.4991V6.12588C27.4138 6.14128 27.3271 6.14842 27.2404 6.14718C27.1359 6.14768 27.0323 6.12697 26.936 6.08631C26.8478 6.04913 26.7726 5.98663 26.7199 5.90671C26.6638 5.81549 26.6372 5.70919 26.6438 5.60231V3.70288H27.0912Z" fill="white"/>
<path d="M27.7487 3.8582C27.711 3.83499 27.6788 3.80382 27.6543 3.76688C27.6301 3.73096 27.6173 3.68848 27.6178 3.64512C27.6173 3.60081 27.63 3.55735 27.6543 3.52032C27.677 3.48274 27.7097 3.45218 27.7487 3.43204C27.7889 3.41037 27.8339 3.39887 27.8796 3.39856C27.9262 3.39932 27.972 3.41077 28.0135 3.43204C28.0534 3.45211 28.0871 3.48262 28.1109 3.52032C28.1353 3.55735 28.148 3.60081 28.1475 3.64512C28.148 3.68848 28.1352 3.73096 28.1109 3.76688C28.0856 3.80415 28.0524 3.83534 28.0135 3.8582C27.973 3.87902 27.9282 3.89047 27.8826 3.89168C27.8359 3.89174 27.7899 3.88024 27.7487 3.8582ZM27.6574 4.16259H28.1079V6.09247H27.6574V4.16259Z" fill="white"/>
<path d="M28.7412 6.01628C28.6011 5.93346 28.488 5.81189 28.4155 5.66622C28.3391 5.50255 28.3026 5.32314 28.3089 5.14266C28.3045 4.96169 28.3431 4.78225 28.4215 4.6191C28.4922 4.47332 28.6031 4.3508 28.7412 4.266C28.8916 4.18421 29.06 4.14136 29.2312 4.14136C29.4024 4.14136 29.5709 4.18421 29.7213 4.266C29.8607 4.35008 29.9728 4.47272 30.044 4.6191C30.1224 4.78225 30.161 4.96169 30.1566 5.14266C30.161 5.32363 30.1224 5.50306 30.044 5.66622C29.9727 5.81177 29.8606 5.93342 29.7213 6.01628C29.5709 6.09807 29.4024 6.14091 29.2312 6.14091C29.06 6.14091 28.8916 6.09807 28.7412 6.01628ZM29.4869 5.69666C29.5586 5.63561 29.6132 5.55692 29.6452 5.46836C29.7143 5.25568 29.7143 5.02659 29.6452 4.81391C29.6132 4.72535 29.5586 4.64666 29.4869 4.58561C29.4156 4.5279 29.326 4.49766 29.2343 4.50038C29.1398 4.49734 29.0471 4.52749 28.9725 4.58561C28.8998 4.64575 28.845 4.72473 28.8142 4.81391C28.7412 5.02594 28.7412 5.25633 28.8142 5.46836C28.845 5.55754 28.8998 5.63652 28.9725 5.69666C29.0436 5.75331 29.1312 5.78536 29.2221 5.78798C29.3185 5.79057 29.4126 5.75812 29.4869 5.69666Z" fill="white"/>
<path d="M30.808 6.09249H30.3545V4.1687H30.7867V4.49441H30.808C30.8531 4.3879 30.9296 4.29765 31.0272 4.23567C31.1356 4.17098 31.2602 4.13827 31.3864 4.14131C31.5085 4.13911 31.629 4.16847 31.7365 4.22654C31.837 4.28451 31.9176 4.37151 31.9678 4.47614C32.0254 4.59885 32.0535 4.73331 32.05 4.86881V6.09249H31.5964V4.93883C31.5985 4.86321 31.5829 4.78814 31.5508 4.71966C31.5239 4.65898 31.4779 4.60874 31.4199 4.57659C31.3589 4.54136 31.2894 4.52347 31.219 4.52485C31.1438 4.52391 31.0695 4.54169 31.0029 4.57659C30.9414 4.61232 30.8916 4.66522 30.8598 4.72879C30.8231 4.80351 30.8053 4.88608 30.808 4.96927V6.09249Z" fill="white"/>
<path d="M12.3372 7.5597H11.1926V7.21268H12.3372V7.5597ZM11.567 6.7013C11.6147 6.61503 11.6881 6.54584 11.7771 6.50344C11.8779 6.45609 11.9884 6.43315 12.0997 6.43647H12.2489L12.3859 6.45778V6.81697H12.2611H12.2245C12.1498 6.80968 12.075 6.83027 12.0145 6.8748C11.9903 6.89948 11.9717 6.92916 11.9601 6.96176C11.9486 6.99436 11.9443 7.02909 11.9475 7.06353V9.13647H11.4818V7.00569C11.484 6.89865 11.5133 6.79393 11.567 6.7013Z" fill="white"/>
<path d="M12.7846 9.06034C12.6445 8.97753 12.5314 8.85596 12.4589 8.71029C12.3846 8.54574 12.3462 8.36727 12.3462 8.18672C12.3462 8.00618 12.3846 7.82771 12.4589 7.66316C12.5312 7.51657 12.6443 7.39397 12.7846 7.31006C12.935 7.22827 13.1035 7.18542 13.2747 7.18542C13.4459 7.18542 13.6144 7.22827 13.7648 7.31006C13.9048 7.39331 14.0171 7.51618 14.0874 7.66316C14.1617 7.82771 14.2001 8.00618 14.2001 8.18672C14.2001 8.36727 14.1617 8.54574 14.0874 8.71029C14.0171 8.85646 13.9047 8.97833 13.7648 9.06034C13.6144 9.14213 13.4459 9.18498 13.2747 9.18498C13.1035 9.18498 12.935 9.14213 12.7846 9.06034ZM13.5304 8.74073C13.6042 8.68594 13.662 8.61236 13.6978 8.52765C13.7669 8.31497 13.7669 8.08588 13.6978 7.8732C13.667 7.78402 13.6122 7.70504 13.5395 7.6449C13.4683 7.58694 13.3786 7.55667 13.2869 7.55967C13.1932 7.55656 13.1016 7.58676 13.0281 7.6449C12.9545 7.70486 12.8987 7.78381 12.8668 7.8732C12.7937 8.08523 12.7937 8.31561 12.8668 8.52765C12.8987 8.61704 12.9545 8.69598 13.0281 8.75595C13.1026 8.81186 13.1938 8.84084 13.2869 8.83813C13.3768 8.83453 13.4628 8.80015 13.5304 8.74073Z" fill="white"/>
<path d="M14.3979 7.21266H14.8363V7.53532H14.8576C14.886 7.43105 14.9494 7.33971 15.0372 7.27658C15.1253 7.2121 15.2324 7.17888 15.3416 7.18222C15.3963 7.17852 15.4512 7.17852 15.506 7.18222V7.61446C15.4744 7.60405 15.4417 7.59791 15.4085 7.5962H15.2959C15.2174 7.59478 15.1398 7.61365 15.0707 7.65099C15.0058 7.68501 14.952 7.73673 14.9154 7.80015C14.8758 7.86627 14.8558 7.94226 14.8576 8.01931V9.13645H14.3979V7.21266Z" fill="white"/>
<path d="M16.34 6.56421H17.9928V6.95688H16.8026V7.66308H17.8802V8.04966H16.8026V9.13636H16.34V6.56421Z" fill="white"/>
<path d="M19.32 7.21265H19.7857V9.13643H19.3352V8.80464H19.3139C19.2691 8.91463 19.1915 9.00815 19.0917 9.07251C18.9837 9.14154 18.8575 9.17654 18.7294 9.17296C18.6111 9.17591 18.4943 9.14644 18.3915 9.08773C18.2933 9.02743 18.215 8.93957 18.1663 8.83508C18.1098 8.71212 18.0827 8.57767 18.0872 8.44241V7.22482H18.5377V8.37544C18.5369 8.44931 18.5536 8.52232 18.5864 8.58852C18.6148 8.64561 18.6592 8.69321 18.7142 8.7255C18.7723 8.75936 18.8388 8.77624 18.906 8.7742C18.9779 8.77598 19.0491 8.75824 19.1118 8.72287C19.1745 8.6875 19.2264 8.63582 19.2621 8.5733C19.3029 8.49987 19.3229 8.41675 19.32 8.33283V7.21265Z" fill="white"/>
<path d="M20.5042 9.13642H20.0507V7.21264H20.4859V7.53834H20.5073C20.5512 7.43205 20.6266 7.34176 20.7234 7.27961C20.833 7.21497 20.9584 7.18229 21.0856 7.18524C21.2076 7.18346 21.3281 7.21279 21.4357 7.27047C21.5346 7.32949 21.614 7.41629 21.664 7.52008C21.7225 7.64463 21.7507 7.78129 21.7461 7.91884V9.13642H21.3078V7.98276C21.3099 7.90714 21.2943 7.83208 21.2622 7.7636C21.2361 7.70337 21.1912 7.65319 21.1343 7.62053C21.0722 7.58533 21.0018 7.56746 20.9304 7.56878C20.8505 7.56227 20.7704 7.57808 20.699 7.61444C20.6359 7.6491 20.585 7.7022 20.5529 7.76664C20.5177 7.84184 20.5 7.92407 20.5012 8.00711L20.5042 9.13642Z" fill="white"/>
<path d="M22.3701 9.06037C22.2365 8.97478 22.1307 8.85207 22.0657 8.70727C21.9872 8.54522 21.9486 8.36675 21.9531 8.18675C21.9503 8.00657 21.9899 7.82825 22.0688 7.66623C22.1345 7.52019 22.2413 7.39644 22.3762 7.31009C22.5234 7.22267 22.6921 7.17837 22.8633 7.18224C23.0067 7.18072 23.1489 7.20978 23.2803 7.26747C23.399 7.32049 23.5006 7.40553 23.5738 7.51306C23.6469 7.62059 23.6886 7.74635 23.6943 7.87626H23.262C23.2502 7.81537 23.2264 7.75743 23.192 7.7058C23.1579 7.6565 23.1118 7.61669 23.0581 7.59013C23.0005 7.56113 22.9368 7.54651 22.8724 7.54752C22.7832 7.54553 22.6957 7.5722 22.6228 7.62362C22.5475 7.67819 22.4894 7.75319 22.4554 7.83974C22.4142 7.94645 22.3945 8.06024 22.3975 8.17457C22.3933 8.29494 22.413 8.41494 22.4554 8.52767C22.4892 8.61516 22.5473 8.69119 22.6228 8.74684C22.6953 8.79906 22.7831 8.82582 22.8724 8.82294C22.9345 8.82392 22.996 8.81037 23.052 8.78337C23.1063 8.75929 23.1535 8.72154 23.189 8.67378C23.2272 8.62166 23.2522 8.5611 23.262 8.49723H23.6943C23.6863 8.62755 23.6444 8.75351 23.5725 8.86251C23.5004 8.96836 23.4017 9.05339 23.2864 9.10907C23.1408 9.17086 22.9833 9.19937 22.8253 9.19252C22.6673 9.18567 22.5128 9.14364 22.3732 9.0695L22.3701 9.06037Z" fill="white"/>
<path d="M24.8418 7.55969H23.7429V7.21268H24.8509L24.8418 7.55969ZM24.4613 6.74695V8.57333C24.4597 8.62049 24.4691 8.66739 24.4887 8.71031C24.5051 8.74001 24.5307 8.76353 24.5617 8.77727C24.5961 8.79277 24.6336 8.80006 24.6713 8.79858H24.8114H24.8692V9.16994C24.7838 9.18549 24.6972 9.19262 24.6104 9.19125C24.5059 9.19175 24.4024 9.17104 24.3061 9.13037C24.2178 9.0932 24.1426 9.0307 24.0899 8.95078C24.0339 8.85956 24.0073 8.75326 24.0138 8.64638V6.74695H24.4613Z" fill="white"/>
<path d="M25.131 6.90214C25.0917 6.87991 25.0583 6.8486 25.0336 6.81083C25.0093 6.7749 24.9966 6.73242 24.9971 6.68907C24.9965 6.64475 25.0093 6.60129 25.0336 6.56426C25.0567 6.52592 25.0906 6.49523 25.131 6.47599C25.1711 6.45395 25.2162 6.44243 25.2619 6.44251C25.3076 6.44282 25.3526 6.45431 25.3928 6.47599C25.4327 6.49606 25.4663 6.52657 25.4902 6.56426C25.5146 6.60129 25.5273 6.64475 25.5267 6.68907C25.5272 6.73242 25.5145 6.7749 25.4902 6.81083C25.4649 6.8481 25.4316 6.87929 25.3928 6.90214C25.3526 6.92382 25.3076 6.93532 25.2619 6.93563C25.2162 6.9357 25.1711 6.92418 25.131 6.90214ZM25.0367 7.20654H25.4902V9.13641H25.0367V7.20654Z" fill="white"/>
<path d="M26.1203 9.06032C25.9802 8.9775 25.8671 8.85593 25.7946 8.71026C25.7203 8.54571 25.6819 8.36724 25.6819 8.1867C25.6819 8.00616 25.7203 7.82768 25.7946 7.66314C25.8669 7.51654 25.98 7.39394 26.1203 7.31004C26.2696 7.22984 26.4364 7.18787 26.6058 7.18787C26.7753 7.18787 26.9421 7.22984 27.0913 7.31004C27.2314 7.39329 27.3437 7.51615 27.414 7.66314C27.4883 7.82768 27.5267 8.00616 27.5267 8.1867C27.5267 8.36724 27.4883 8.54571 27.414 8.71026C27.3436 8.85643 27.2313 8.97831 27.0913 9.06032C26.9409 9.14211 26.7724 9.18495 26.6012 9.18495C26.43 9.18495 26.2616 9.14211 26.1112 9.06032H26.1203ZM26.8661 8.7407C26.9388 8.68056 26.9935 8.60158 27.0244 8.5124C27.0934 8.29972 27.0934 8.07063 27.0244 7.85795C26.9935 7.76877 26.9388 7.6898 26.8661 7.62965C26.7949 7.5717 26.7052 7.54143 26.6134 7.54442C26.5198 7.54132 26.4281 7.57152 26.3547 7.62965C26.2811 7.68962 26.2253 7.76856 26.1934 7.85795C26.1203 8.06998 26.1203 8.30037 26.1934 8.5124C26.2253 8.60179 26.2811 8.68074 26.3547 8.7407C26.4291 8.79662 26.5204 8.82559 26.6134 8.82289C26.7046 8.82568 26.794 8.79662 26.8661 8.7407Z" fill="white"/>
<path d="M28.1871 9.13638H27.7335V7.21259H28.1688V7.5383H28.1901C28.234 7.432 28.3095 7.34171 28.4062 7.27956C28.5149 7.21533 28.6393 7.18265 28.7654 7.1852C28.8885 7.18303 29.01 7.21237 29.1185 7.27043C29.2174 7.32945 29.2968 7.41625 29.3468 7.52003C29.4054 7.64459 29.4335 7.78124 29.429 7.91879V9.13638H28.9755V7.98272C28.9776 7.9071 28.9619 7.83203 28.9298 7.76355C28.9037 7.70333 28.8589 7.65314 28.802 7.62048C28.7398 7.58529 28.6694 7.56742 28.598 7.56874C28.5228 7.5678 28.4485 7.58558 28.3819 7.62048C28.3204 7.65621 28.2707 7.7091 28.2388 7.77268C28.2036 7.84788 28.1859 7.93011 28.1871 8.01315V9.13638Z" fill="white"/>
<path d="M30.744 8.29937H30.6375L30.397 8.31459C30.3033 8.31706 30.2124 8.34667 30.1352 8.39982C30.1054 8.42181 30.0815 8.45082 30.0656 8.48427C30.0496 8.51772 30.0422 8.55458 30.0439 8.59159C30.0411 8.64184 30.0562 8.69144 30.0865 8.73162C30.116 8.77138 30.1561 8.80199 30.2022 8.81989C30.2569 8.8391 30.3147 8.84838 30.3727 8.84729C30.4551 8.84866 30.5366 8.82985 30.6101 8.7925C30.675 8.75886 30.7297 8.70839 30.7684 8.64638C30.8048 8.58575 30.8238 8.51622 30.8232 8.44548V7.83669C30.825 7.77934 30.8113 7.72256 30.7836 7.67232C30.7576 7.62545 30.7154 7.58971 30.6649 7.57187C30.6042 7.54686 30.5387 7.53543 30.4731 7.53838C30.3886 7.53322 30.3045 7.5545 30.2326 7.59926C30.1715 7.63675 30.1277 7.69696 30.1109 7.76668H29.6756C29.6851 7.65538 29.7275 7.54943 29.7974 7.46228C29.8712 7.37091 29.9678 7.30058 30.0774 7.25834C30.2091 7.20608 30.3497 7.18022 30.4914 7.18224C30.6229 7.18141 30.7537 7.20302 30.878 7.24616C30.9992 7.28373 31.1056 7.35823 31.1824 7.45924C31.2644 7.57203 31.3052 7.70957 31.298 7.84887V9.13646H30.8627V8.86859C30.8151 8.96202 30.741 9.03932 30.6497 9.0908C30.5406 9.15031 30.4177 9.17972 30.2935 9.17603C30.1785 9.17713 30.0645 9.15433 29.9587 9.10907C29.8652 9.06638 29.7859 8.9977 29.7304 8.91121C29.671 8.81546 29.6413 8.70422 29.6452 8.59159C29.6386 8.51164 29.6522 8.43133 29.6846 8.35796C29.717 8.2846 29.7673 8.22051 29.8308 8.17153C29.9882 8.07606 30.1674 8.0226 30.3514 8.01628H30.5401H30.744H30.8688V8.32068L30.744 8.29937Z" fill="white"/>
<path d="M32.0073 9.13636H31.5537V6.56421H32.0073V9.13636Z" fill="white"/>
<path d="M33.5809 6.56421L34.3511 8.44234H34.3815L35.1486 6.56421H35.7178V9.13636H35.2734V7.37086H35.246L34.5307 9.13636H34.1989L33.4835 7.36782H33.4622V9.13636H33.0148V6.56421H33.5809Z" fill="white"/>
<path d="M36.3754 9.06034C36.2354 8.97753 36.1222 8.85596 36.0497 8.71029C35.9754 8.54574 35.937 8.36727 35.937 8.18672C35.937 8.00618 35.9754 7.82771 36.0497 7.66316C36.122 7.51657 36.2351 7.39397 36.3754 7.31006C36.5258 7.22827 36.6943 7.18542 36.8655 7.18542C37.0367 7.18542 37.2052 7.22827 37.3556 7.31006C37.495 7.39415 37.607 7.51678 37.6782 7.66316C37.7525 7.82771 37.791 8.00618 37.791 8.18672C37.791 8.36727 37.7525 8.54574 37.6782 8.71029C37.607 8.85584 37.4949 8.97748 37.3556 9.06034C37.2052 9.14213 37.0367 9.18498 36.8655 9.18498C36.6943 9.18498 36.5258 9.14213 36.3754 9.06034ZM37.1364 8.74073C37.2081 8.67968 37.2627 8.60099 37.2947 8.51243C37.3638 8.29975 37.3638 8.07066 37.2947 7.85798C37.2627 7.76941 37.2081 7.69073 37.1364 7.62968C37.0651 7.57197 36.9755 7.54173 36.8838 7.54445C36.7892 7.54141 36.6966 7.57156 36.622 7.62968C36.5503 7.69073 36.4957 7.76941 36.4637 7.85798C36.3906 8.07001 36.3906 8.30039 36.4637 8.51243C36.4957 8.60099 36.5503 8.67968 36.622 8.74073C36.6976 8.79665 36.7898 8.82559 36.8838 8.82291C36.9749 8.8252 37.0641 8.7962 37.1364 8.74073Z" fill="white"/>
<path d="M38.007 6.56421H38.4605V7.52915H38.4818V7.51393C38.5134 7.45732 38.5523 7.40512 38.5975 7.35868C38.6468 7.3109 38.7046 7.27271 38.7679 7.24606C38.8489 7.21246 38.936 7.19588 39.0236 7.19735C39.1678 7.19632 39.3093 7.23645 39.4315 7.31302C39.5581 7.3963 39.6576 7.51481 39.7177 7.65395C39.7918 7.8237 39.8281 8.00754 39.8242 8.19273C39.8297 8.37775 39.7944 8.5617 39.7207 8.73151C39.6598 8.87094 39.5606 8.99022 39.4346 9.07548C39.3123 9.15482 39.1693 9.19614 39.0236 9.19419C38.9349 9.19703 38.8466 9.1804 38.7649 9.14549C38.7006 9.11628 38.6419 9.07611 38.5914 9.02678C38.5471 8.98025 38.5093 8.92804 38.4788 8.87153H38.4483V9.17593H38.0039L38.007 6.56421ZM38.5062 8.5093C38.5374 8.59656 38.5922 8.67347 38.6644 8.73151C38.7366 8.78375 38.8234 8.81187 38.9125 8.81187C39.0016 8.81187 39.0884 8.78375 39.1606 8.73151C39.2329 8.67347 39.2876 8.59656 39.3189 8.5093C39.3572 8.40401 39.3757 8.29257 39.3737 8.18055C39.3751 8.07083 39.3576 7.96168 39.3219 7.85789C39.2914 7.77113 39.2364 7.69503 39.1637 7.63873C39.09 7.58648 39.0013 7.55976 38.911 7.56263C38.8217 7.55975 38.7339 7.58651 38.6614 7.63873C38.5899 7.69426 38.5359 7.76933 38.5062 7.85485C38.4675 7.95899 38.4489 8.0695 38.4514 8.18055C38.4493 8.29257 38.4679 8.40401 38.5062 8.5093Z" fill="white"/>
<path d="M40.1286 6.90214C40.0909 6.87893 40.0587 6.84777 40.0342 6.81082C40.0099 6.7749 39.9972 6.73242 39.9977 6.68907C39.9972 6.64475 40.0099 6.60129 40.0342 6.56426C40.0569 6.52668 40.0896 6.49612 40.1286 6.47599C40.1688 6.45431 40.2138 6.44282 40.2595 6.4425C40.3061 6.44326 40.3519 6.45472 40.3934 6.47599C40.4333 6.49606 40.4669 6.52657 40.4908 6.56426C40.5152 6.60129 40.5279 6.64475 40.5273 6.68907C40.5278 6.73242 40.5151 6.7749 40.4908 6.81082C40.4655 6.8481 40.4322 6.87929 40.3934 6.90214C40.3528 6.92297 40.3081 6.93441 40.2625 6.93563C40.2158 6.93569 40.1698 6.92419 40.1286 6.90214ZM40.0342 7.20654H40.4847V9.13641H40.0312L40.0342 7.20654Z" fill="white"/>
<path d="M41.2182 9.13636H40.7677V6.56421H41.2182V9.13636Z" fill="white"/>
<path d="M41.5927 6.90214C41.5539 6.87929 41.5206 6.8481 41.4953 6.81083C41.4719 6.77463 41.4602 6.73213 41.4618 6.68907C41.4602 6.64505 41.4719 6.60155 41.4953 6.56426C41.5192 6.52657 41.5528 6.49606 41.5927 6.47599C41.6328 6.45395 41.6778 6.44243 41.7236 6.44251C41.7693 6.44282 41.8142 6.45431 41.8545 6.47599C41.8943 6.49606 41.928 6.52657 41.9519 6.56426C41.9762 6.60129 41.989 6.64475 41.9884 6.68907C41.9889 6.73242 41.9762 6.7749 41.9519 6.81083C41.9266 6.8481 41.8933 6.87929 41.8545 6.90214C41.8143 6.92399 41.7693 6.93544 41.7236 6.93544C41.6779 6.93544 41.6329 6.92399 41.5927 6.90214ZM41.4983 7.20654H41.9519V9.13641H41.4983V7.20654Z" fill="white"/>
<path d="M43.1908 7.55969H42.0797V7.21268H43.1908V7.55969ZM42.8103 6.74695V8.57333C42.8087 8.62049 42.818 8.66739 42.8377 8.71031C42.854 8.74001 42.8797 8.76353 42.9107 8.77727C42.9451 8.79277 42.9826 8.80006 43.0203 8.79858H43.1603H43.2182V9.16994C43.1328 9.18535 43.0461 9.19249 42.9594 9.19125C42.8549 9.19175 42.7513 9.17104 42.655 9.13037C42.5668 9.0932 42.4916 9.0307 42.4389 8.95078C42.3828 8.85956 42.3563 8.75326 42.3628 8.64638V6.74695H42.8103Z" fill="white"/>
<path d="M43.4192 9.86698V9.50171H43.614C43.6514 9.50537 43.6892 9.50537 43.7266 9.50171C43.7608 9.49092 43.7914 9.47091 43.8149 9.44387C43.8489 9.40019 43.8747 9.35068 43.891 9.29776L43.9306 9.19427L43.2244 7.21265H43.7053L44.1528 8.67375H44.1741L44.6215 7.21265H45.1055L44.3293 9.38299C44.2841 9.52678 44.1973 9.65392 44.0797 9.74827C43.9548 9.83735 43.8038 9.88233 43.6505 9.87612L43.4192 9.86698Z" fill="white"/>
</g>
</svg>
